<svg xmlns="http://www.w3.org/2000/svg" viewBox="0.412208 -0.218894 32.1858 45.0205" width="32.1858" height="45.0205" xmlns:xlink="http://www.w3.org/1999/xlink" version="1.1">
  <defs>
    <linearGradient id="grad_1" x2="0" y2="1">
      <stop stop-color="rgb(172, 127, 46)" stop-opacity="1" offset="0"/>
      <stop stop-color="rgb(210, 152, 57)" stop-opacity="1" offset="1"/>
    </linearGradient>
    <linearGradient id="grad_2" x2="0" y2="1">
      <stop stop-color="rgb(172, 127, 46)" stop-opacity="1" offset="0"/>
      <stop stop-color="rgb(210, 152, 57)" stop-opacity="1" offset="1"/>
    </linearGradient>
    <linearGradient id="grad_3" x2="0" y2="1">
      <stop stop-color="rgb(159, 122, 41)" stop-opacity="1" offset="0"/>
      <stop stop-color="rgb(210, 152, 57)" stop-opacity="1" offset="1"/>
    </linearGradient>
    <linearGradient id="grad_4" x2="0" y2="1">
      <stop stop-color="rgb(243, 178, 113)" stop-opacity="1" offset="0"/>
      <stop stop-color="rgb(255, 203, 153)" stop-opacity="1" offset="1"/>
    </linearGradient>
    <linearGradient id="grad_5" x2="1">
      <stop stop-color="rgb(203, 189, 124)" stop-opacity="1" offset="0"/>
      <stop stop-color="rgb(180, 129, 45)" stop-opacity="1" offset="1"/>
    </linearGradient>
    <linearGradient id="grad_6" x2="1">
      <stop stop-color="rgb(180, 129, 45)" stop-opacity="1" offset="0"/>
      <stop stop-color="rgb(203, 189, 124)" stop-opacity="1" offset="1"/>
    </linearGradient>
    <linearGradient id="grad_7" x2="0" y2="1">
      <stop stop-color="rgb(255, 203, 107)" stop-opacity="1" offset="0"/>
      <stop stop-color="rgb(255, 203, 153)" stop-opacity="1" offset="1"/>
    </linearGradient>
    <linearGradient id="grad_8" x2="1">
      <stop stop-color="rgb(254, 158, 108)" stop-opacity="1" offset="0"/>
      <stop stop-color="rgb(255, 203, 153)" stop-opacity="1" offset="1"/>
    </linearGradient>
    <linearGradient id="grad_9" x2="1">
      <stop stop-color="rgb(254, 158, 108)" stop-opacity="1" offset="0"/>
      <stop stop-color="rgb(255, 203, 153)" stop-opacity="1" offset="1"/>
    </linearGradient>
  <linearGradient id="grad_1-.206997,-0.150542,-0.150542,-0.206997,-4.8500000000000005,92.39999999999999" gradientUnits="userSpaceOnUse" x1="9.4799" y1="29.7443" x2="4.9219" y2="23.477">
      <stop stop-color="rgb(172, 127, 46)" stop-opacity="1" offset="0"/>
      <stop stop-color="rgb(210, 152, 57)" stop-opacity="1" offset="1"/>
    </linearGradient><linearGradient id="grad_2-0.216249,-0.13692,0.13692,-0.216249,44.599999999999994,91.35" gradientUnits="userSpaceOnUse" x1="26.2754" y1="29.7683" x2="30.4303" y2="23.2061">
      <stop stop-color="rgb(172, 127, 46)" stop-opacity="1" offset="0"/>
      <stop stop-color="rgb(210, 152, 57)" stop-opacity="1" offset="1"/>
    </linearGradient><linearGradient id="grad_3-.411818,0,0,0.388828,-77.45,-38.05" gradientUnits="userSpaceOnUse" x1="12.8255" y1="21.5216" x2="12.8255" y2="36.24">
      <stop stop-color="rgb(159, 122, 41)" stop-opacity="1" offset="0"/>
      <stop stop-color="rgb(210, 152, 57)" stop-opacity="1" offset="1"/>
    </linearGradient><linearGradient id="grad_4-.25595,0,0,0.25595,-41.1,-14.75" gradientUnits="userSpaceOnUse" x1="15.0073" y1="24.4636" x2="15.0073" y2="34.1522">
      <stop stop-color="rgb(243, 178, 113)" stop-opacity="1" offset="0"/>
      <stop stop-color="rgb(255, 203, 153)" stop-opacity="1" offset="1"/>
    </linearGradient><linearGradient id="grad_5-.25595,0,0,0.25595,-39.95,-15.9" gradientUnits="userSpaceOnUse" x1="4.2654" y1="8.6072" x2="11.048" y2="8.6072">
      <stop stop-color="rgb(203, 189, 124)" stop-opacity="1" offset="0"/>
      <stop stop-color="rgb(180, 129, 45)" stop-opacity="1" offset="1"/>
    </linearGradient><linearGradient id="grad_6-.25595,0,0,0.25595,-18.9,-15.8" gradientUnits="userSpaceOnUse" x1="25.3154" y1="8.7072" x2="32.098" y2="8.7072">
      <stop stop-color="rgb(180, 129, 45)" stop-opacity="1" offset="0"/>
      <stop stop-color="rgb(203, 189, 124)" stop-opacity="1" offset="1"/>
    </linearGradient><linearGradient id="grad_7-.292955,0,0,0.292955,-48.050000000000004,-20.349999999999998" gradientUnits="userSpaceOnUse" x1="12.6356" y1="16.5322" x2="12.6356" y2="22.2061">
      <stop stop-color="rgb(255, 203, 107)" stop-opacity="1" offset="0"/>
      <stop stop-color="rgb(255, 203, 153)" stop-opacity="1" offset="1"/>
    </linearGradient><linearGradient id="grad_8-.25595,0,0,0.25595,-41.300000000000004,-15.4" gradientUnits="userSpaceOnUse" x1="9.2501" y1="18.4494" x2="12.4495" y2="18.4494">
      <stop stop-color="rgb(254, 158, 108)" stop-opacity="1" offset="0"/>
      <stop stop-color="rgb(255, 203, 153)" stop-opacity="1" offset="1"/>
    </linearGradient><linearGradient id="grad_9-.25595,0,0,0.25595,-26.55,-15.75" gradientUnits="userSpaceOnUse" x1="24" y1="18.0994" x2="27.1995" y2="18.0994">
      <stop stop-color="rgb(254, 158, 108)" stop-opacity="1" offset="0"/>
      <stop stop-color="rgb(255, 203, 153)" stop-opacity="1" offset="1"/>
    </linearGradient></defs>
  <!-- Exported by Scratch - http://scratch.mit.edu/ -->
  <g id="ID0.10308711230754852">
    <g id="ID0.4129900340922177">
      <path id="ID0.4288085182197392" fill="#b4852d" stroke="none" stroke-linecap="round" stroke-width="0.25595" d="M 21.8844 34.1228 C 20.8179 34.0567 19.402 34.4355 18.8514 35.0698 C 18.5446 35.3953 19.7977 35.6242 20.1696 36.0424 C 20.5317 36.4493 20.7816 36.9533 20.963 37.4757 C 21.1238 37.9364 21.1481 38.4399 21.1806 38.9474 C 21.2558 40.1258 21.0608 41.3301 21.2702 42.4923 C 21.3078 42.7864 21.6224 42.7104 21.8205 42.7227 C 22.254 42.7495 22.994 43.0344 23.1642 42.6203 C 23.6582 41.2712 23.437 39.7437 23.4841 38.3075 C 23.4992 37.8502 23.4043 37.4097 23.305 36.9446 C 23.1849 36.3851 23.049 35.8164 22.8059 35.3001 C 22.5686 34.8619 22.3812 34.1535 21.8844 34.1228 Z"/>
      <path id="ID0.9969862452708185" fill="#fdcb96" stroke="none" stroke-linecap="round" stroke-width="0.25595" d="M 22.5248 41.6072 C 22.0758 41.5599 21.5657 41.7685 21.2355 42.0293 C 20.9054 42.2898 20.7771 42.6717 20.7011 43.0469 C 20.64 43.3497 20.5895 43.8033 20.8547 43.962 C 21.3223 44.2417 21.944 44.1296 22.4928 44.1283 C 23.0154 44.1296 23.5992 44.2251 24.0541 43.962 C 24.3776 43.7749 24.5532 43.3106 24.5148 42.9382 C 24.4818 42.6269 24.1362 42.4273 23.8749 42.2471 C 23.4646 41.9668 23.0269 41.6605 22.5248 41.6072 Z"/>
      <path id="ID0.9179897592402995" fill="#cc9832" stroke="none" stroke-linecap="round" stroke-width="0.25595" d="M 22.1207 41.687 C 21.7832 41.7051 21.4072 41.6939 21.1256 41.8746 C 20.9168 42.0082 20.7977 42.3161 20.8154 42.5828 C 20.8187 42.7064 21.0209 42.7384 21.1737 42.762 C 21.7637 42.8495 22.3539 42.8933 22.9654 42.8643 C 23.24 42.851 23.5423 42.8116 23.7588 42.634 C 23.8709 42.5416 23.7849 42.3389 23.7204 42.1989 C 23.6375 42.0202 23.4949 41.8265 23.3109 41.7766 C 22.9283 41.645 22.5093 41.6662 22.1207 41.687 Z"/>
    </g>
    <path id="ID0.13197573041543365" fill="#a97a2a" stroke="none" stroke-linecap="round" stroke-width="0.25595" d="M 5.413 26.4877 C 6.3308 26.8699 7.091 27.6029 7.7805 28.3178 C 8.1578 28.7393 8.4101 29.284 8.5483 29.8279 C 8.7805 30.7414 8.7388 31.7065 8.8427 32.6433 C 8.9376 33.4979 8.8327 34.3717 9.1242 35.1644 C 9.2924 35.6205 9.6558 36.0295 10.084 36.1626 C 10.8043 36.4063 11.6039 36.288 12.3236 36.2138 C 13.1874 36.1255 14.0543 36.0155 14.8831 35.7147 C 15.4795 35.4984 15.9184 34.813 16.5212 34.7421 C 17.45 34.6331 19.695 34.7644 19.2983 35.1644 C 18.6 35.8688 15.931 36.705 14.1483 37.1542 C 12.9742 37.4495 11.7431 37.532 10.5576 37.4296 C 9.8202 37.3467 9.0045 37.1291 8.51 36.6105 C 7.9778 36.0526 7.8488 35.1946 7.7165 34.435 C 7.5184 33.2978 7.7111 32.1506 7.5245 31.0308 C 7.4119 30.3556 7.2515 29.595 6.7951 29.0472 C 6.2113 28.3582 5.3999 27.8494 4.5427 27.4859 C 3.4455 27.0211 2.113 27.2481 1.0618 26.6541 C 0.7649 26.4862 0.9456 25.6718 1.2922 25.6559 C 2.6705 25.5929 4.1207 25.9497 5.413 26.4877 Z"/>
    <g id="ID0.1456865668296814">
      <path id="ID0.4081752202473581" fill="#fccd97" stroke="none" stroke-linecap="round" stroke-width="0.25595" d="M 6.4751 23.6595 C 6.695 23.4755 7.2245 23.5721 7.2866 23.3067 C 7.3295 22.8413 6.9578 22.3998 6.7032 22.0694 C 6.5241 21.8361 6.2455 21.6532 5.959 21.6039 C 5.6724 21.5545 5.37 21.6148 5.1202 21.7965 C 4.8703 21.9782 4.7198 22.2473 4.6785 22.5352 C 4.6371 22.8229 4.7274 23.1437 4.892 23.3866 C 5.1244 23.7301 5.4321 24.2215 5.8894 24.3228 C 6.16 24.3469 6.2503 23.8483 6.4751 23.6595 Z"/>
      <path id="ID0.30281658796593547" fill="url(#grad_1-.206997,-0.150542,-0.150542,-0.206997,-4.8500000000000005,92.39999999999999)" stroke="none" stroke-width="0.25595" d="M 12.3121 27.2244 C 12.9269 27.1885 13.5733 26.8645 14.0011 26.3917 C 14.3041 26.0565 14.5471 25.2892 14.2128 25.051 C 13.8058 24.7634 13.0791 25.3795 12.505 25.4226 C 11.7444 25.446 10.9705 25.4515 10.2422 25.2485 C 9.5827 25.0632 8.9345 24.601 8.351 24.1712 C 7.7208 23.7067 7.3675 22.6161 6.5445 22.5576 C 5.9525 22.4995 5.0559 23.3724 5.3213 23.9219 C 5.9336 25.1881 7.2238 26.0287 8.4686 26.6175 C 9.6252 27.1683 11.0084 27.2668 12.3121 27.2244 Z"/>
      <path id="ID0.30041926680132747" fill="#cd9934" stroke="none" stroke-linecap="round" stroke-width="0.25595" d="M 6.2632 23.763 C 6.5344 23.5658 6.7381 23.329 6.848 23.1057 C 6.9579 22.8827 6.974 22.6732 6.8701 22.5304 C 6.7662 22.3876 6.562 22.3383 6.3159 22.3742 C 6.0697 22.4099 5.7817 22.5308 5.5105 22.728 C 5.2393 22.9252 5.0356 23.162 4.9258 23.3852 C 4.8158 23.6083 4.7997 23.8177 4.9036 23.9606 C 5.0075 24.1034 5.2117 24.1527 5.4578 24.1168 C 5.704 24.0811 5.992 23.9602 6.2632 23.763 Z"/>
    </g>
    <g id="ID0.35395473008975387">
      <path id="ID0.4081752202473581" fill="#fccd97" stroke="none" stroke-linecap="round" stroke-width="0.255951" d="M 29.482 23.5396 C 29.7341 23.6762 29.8395 24.204 30.1091 24.1639 C 30.5575 24.0322 30.8309 23.5239 31.0442 23.1655 C 31.195 22.9129 31.2623 22.5865 31.2025 22.3021 C 31.1428 22.0174 30.9752 21.7586 30.7142 21.5934 C 30.4532 21.4281 30.1476 21.3873 29.8648 21.4551 C 29.5821 21.5227 29.3171 21.7248 29.152 21.9674 C 28.9184 22.31 28.575 22.7773 28.6494 23.2397 C 28.7268 23.5002 29.2236 23.4003 29.482 23.5396 Z"/>
      <path id="ID0.30281658796593547" fill="url(#grad_2-0.216249,-0.13692,0.13692,-0.216249,44.599999999999994,91.35)" stroke="none" stroke-width="0.255951" d="M 23.7797 27.2733 C 22.8625 27.2339 21.8836 27.0437 21.1524 26.5186 C 20.8539 26.2685 20.9173 25.5149 21.2459 25.3661 C 21.7764 25.1279 22.3984 25.6211 22.974 25.6272 C 23.7346 25.6016 24.5072 25.5573 25.221 25.308 C 25.8672 25.0806 26.4843 24.5777 27.039 24.1113 C 27.6381 23.6072 27.9205 22.4961 28.738 22.3848 C 29.325 22.2887 30.2652 23.0924 30.0464 23.6676 C 29.536 25.0067 28.2703 25.9881 27.0321 26.6819 C 26.0419 27.2373 24.8775 27.3183 23.7797 27.2733 Z"/>
      <path id="ID0.30041926680132747" fill="#cd9934" stroke="none" stroke-linecap="round" stroke-width="0.255951" d="M 29.2601 23.6648 C 29.5434 23.8442 29.8387 23.9463 30.0867 23.9661 C 30.3345 23.9861 30.5352 23.9238 30.6296 23.7746 C 30.7241 23.6254 30.6946 23.4174 30.5705 23.2019 C 30.4466 22.9862 30.228 22.763 29.9447 22.5836 C 29.6615 22.4042 29.3662 22.3021 29.1182 22.2823 C 28.8704 22.2623 28.6697 22.3246 28.5753 22.4738 C 28.4808 22.6231 28.5103 22.8311 28.6343 23.0465 C 28.7583 23.2623 28.9769 23.4855 29.2601 23.6648 Z"/>
    </g>
    <g id="ID0.7912502754479647">
      <path id="ID0.4288085182197392" fill="#b4852d" stroke="none" stroke-linecap="round" stroke-width="0.25595" d="M 14.1656 34.1228 C 15.2321 34.0567 16.648 34.4355 17.1986 35.0698 C 17.5054 35.3953 16.2523 35.6242 15.8804 36.0424 C 15.5183 36.4493 15.2684 36.9533 15.087 37.4757 C 14.9262 37.9364 14.9019 38.4399 14.8694 38.9474 C 14.7942 40.1258 14.9892 41.3301 14.7798 42.4923 C 14.7422 42.7864 14.4276 42.7104 14.2295 42.7227 C 13.796 42.7495 13.056 43.0344 12.8858 42.6203 C 12.3918 41.2712 12.613 39.7437 12.5659 38.3075 C 12.5508 37.8502 12.6457 37.4097 12.745 36.9446 C 12.8651 36.3851 13.001 35.8164 13.2441 35.3001 C 13.4814 34.8619 13.6688 34.1535 14.1656 34.1228 Z"/>
      <path id="ID0.9969862452708185" fill="#fdcb96" stroke="none" stroke-linecap="round" stroke-width="0.25595" d="M 13.7752 41.7572 C 14.2242 41.7099 14.7343 41.9185 15.0645 42.1793 C 15.3946 42.4398 15.5229 42.8217 15.5989 43.1969 C 15.66 43.4997 15.7105 43.9533 15.4453 44.112 C 14.9777 44.3917 14.356 44.2796 13.8072 44.2783 C 13.2846 44.2796 12.7008 44.3751 12.2459 44.112 C 11.9224 43.9249 11.7468 43.4606 11.7852 43.0882 C 11.8182 42.7769 12.1638 42.5773 12.4251 42.3971 C 12.8354 42.1168 13.2731 41.8105 13.7752 41.7572 Z"/>
      <path id="ID0.9179897592402995" fill="#cc9832" stroke="none" stroke-linecap="round" stroke-width="0.25595" d="M 14.1793 41.687 C 14.5168 41.7051 14.8928 41.6939 15.1744 41.8746 C 15.3832 42.0082 15.5023 42.3161 15.4846 42.5828 C 15.4813 42.7064 15.2791 42.7384 15.1263 42.762 C 14.5363 42.8495 13.9461 42.8933 13.3346 42.8643 C 13.06 42.851 12.7577 42.8116 12.5412 42.634 C 12.4291 42.5416 12.5151 42.3389 12.5796 42.1989 C 12.6625 42.0202 12.8051 41.8265 12.9891 41.7766 C 13.3717 41.645 13.7907 41.6662 14.1793 41.687 Z"/>
    </g>
    <g id="ID0.5157573288306594">
      <path id="ID0.49259263556450605" fill="url(#grad_3-.411818,0,0,0.388828,-77.45,-38.05)" stroke="none" stroke-linecap="round" stroke-width="0.400488" d="M 22.6218 21.7323 C 23.3816 21.8361 23.0991 21.8606 23.1365 22.8016 C 23.286 26.565 23.5793 30.3888 23.1365 34.1748 C 23.027 35.0804 22.3269 35.589 21.5922 35.9245 C 20.6619 36.3495 19.5546 36.2161 18.5036 36.2161 C 17.3167 36.2161 16.0072 36.3639 14.9002 35.9245 C 14.0963 35.601 13.2871 35.0236 13.15 34.0776 C 12.6018 30.2931 12.8769 26.4496 13.047 22.6072 C 13.0894 21.6464 13.0289 21.793 13.7677 21.7323 C 16.7237 21.4889 19.7119 21.4162 22.6218 21.7323 Z"/>
      <path id="ID0.49259263556450605" fill="url(#grad_4-.25595,0,0,0.25595,-41.1,-14.75)" stroke="none" stroke-linecap="round" stroke-width="0.25595" d="M 21.0958 24.6023 C 21.5681 24.6707 21.3925 24.6868 21.4158 25.3062 C 21.5087 27.7835 21.6909 30.3005 21.4158 32.7927 C 21.3477 33.3888 20.9126 33.7236 20.456 33.9445 C 19.8778 34.2242 19.1895 34.1365 18.5363 34.1365 C 17.7987 34.1365 16.9848 34.2337 16.2968 33.9445 C 15.7972 33.7315 15.2942 33.3515 15.209 32.7287 C 14.8683 30.2376 15.0393 27.7075 15.145 25.1782 C 15.1714 24.5457 15.1338 24.6422 15.5929 24.6023 C 17.4301 24.4421 19.2873 24.3942 21.0958 24.6023 Z"/>
      <path id="ID0.9902052730321884" fill="#fccded" stroke="none" stroke-linecap="round" stroke-width="0.25595" d="M 18.3667 32.4147 C 18.508 32.4147 18.636 32.4577 18.7286 32.5274 C 18.8213 32.5967 18.8786 32.6927 18.8786 32.7987 C 18.8786 32.9046 18.8213 33.0006 18.7286 33.07 C 18.636 33.1396 18.508 33.1826 18.3667 33.1826 C 18.2254 33.1826 18.0975 33.1396 18.0048 33.07 C 17.9121 33.0006 17.8548 32.9046 17.8548 32.7987 C 17.8548 32.6927 17.9121 32.5967 18.0048 32.5274 C 18.0975 32.4577 18.2254 32.4147 18.3667 32.4147 Z"/>
    </g>
    <g id="ID0.9301250060088933">
      <path id="ID0.676788670476526" fill="#cd9934" stroke="none" stroke-width="0.25595" d="M 13.2172 23.0086 C 13.7204 23.0086 14.1762 23.2379 14.5064 23.6088 C 14.8366 23.9794 15.0408 24.4913 15.0408 25.0562 C 15.0408 25.6211 14.8366 26.133 14.5064 26.5036 C 14.1762 26.8744 13.7204 27.1038 13.2172 27.1038 C 12.714 27.1038 12.2581 26.8744 11.928 26.5036 C 11.5978 26.133 11.3935 25.6211 11.3935 25.0562 C 11.3935 24.4913 11.5978 23.9794 11.928 23.6088 C 12.2581 23.2379 12.714 23.0086 13.2172 23.0086 Z"/>
      <path id="ID0.676788670476526" fill="#cd9934" stroke="none" stroke-width="0.25595" d="M 16.3672 22.9086 C 16.8704 22.9086 17.3262 23.1379 17.6564 23.5088 C 17.9866 23.8794 18.1908 24.3913 18.1908 24.9562 C 18.1908 25.5211 17.9866 26.033 17.6564 26.4036 C 17.3262 26.7744 16.8704 27.0038 16.3672 27.0038 C 15.864 27.0038 15.4081 26.7744 15.078 26.4036 C 14.7478 26.033 14.5435 25.5211 14.5435 24.9562 C 14.5435 24.3913 14.7478 23.8794 15.078 23.5088 C 15.4081 23.1379 15.864 22.9086 16.3672 22.9086 Z"/>
      <path id="ID0.676788670476526" fill="#cd9934" stroke="none" stroke-width="0.25595" d="M 19.9672 22.9086 C 20.4704 22.9086 20.9262 23.1379 21.2564 23.5088 C 21.5866 23.8794 21.7908 24.3913 21.7908 24.9562 C 21.7908 25.5211 21.5866 26.033 21.2564 26.4036 C 20.9262 26.7744 20.4704 27.0038 19.9672 27.0038 C 19.464 27.0038 19.0081 26.7744 18.678 26.4036 C 18.3478 26.033 18.1435 25.5211 18.1435 24.9562 C 18.1435 24.3913 18.3478 23.8794 18.678 23.5088 C 19.0081 23.1379 19.464 22.9086 19.9672 22.9086 Z"/>
      <path id="ID0.676788670476526" fill="#cd9934" stroke="none" stroke-width="0.25595" d="M 23.4672 22.8586 C 23.9704 22.8586 24.4262 23.0879 24.7564 23.4588 C 25.0866 23.8294 25.2908 24.3413 25.2908 24.9062 C 25.2908 25.4711 25.0866 25.983 24.7564 26.3536 C 24.4262 26.7244 23.9704 26.9538 23.4672 26.9538 C 22.964 26.9538 22.5081 26.7244 22.178 26.3536 C 21.8478 25.983 21.6436 25.4711 21.6436 24.9062 C 21.6436 24.3413 21.8478 23.8294 22.178 23.4588 C 22.5081 23.0879 22.964 22.8586 23.4672 22.8586 Z"/>
      <path id="ID0.303304610773921" fill="#cd9934" stroke="none" stroke-width="0.25595" d="M 18.0804 22.3747 C 19.6517 22.3747 21.0753 22.5502 22.1062 22.8341 C 23.1372 23.1179 23.7753 23.5098 23.7753 23.9423 C 23.7753 24.3749 23.1372 24.7668 22.1062 25.0506 C 21.0753 25.3345 19.6517 25.51 18.0804 25.51 C 16.5091 25.51 15.0855 25.3345 14.0546 25.0506 C 13.0236 24.7668 12.3855 24.3749 12.3855 23.9423 C 12.3855 23.5098 13.0236 23.1179 14.0546 22.8341 C 15.0855 22.5502 16.5091 22.3747 18.0804 22.3747 Z"/>
    </g>
    <g id="ID0.7608959171921015">
      <path id="ID0.1028266386128962" fill="url(#grad_5-.25595,0,0,0.25595,-39.95,-15.9)" stroke="none" stroke-width="0.25595" d="M 7.6567 8.6072 C 8.5925 8.6072 9.4402 8.9658 10.0542 9.545 C 10.668 10.124 11.048 10.9238 11.048 11.8066 C 11.048 12.6894 10.668 13.4892 10.0542 14.0682 C 9.4402 14.6474 8.5925 15.006 7.6567 15.006 C 6.7209 15.006 5.8732 14.6474 5.2592 14.0682 C 4.6454 13.4892 4.2654 12.6894 4.2654 11.8066 C 4.2654 10.9238 4.6454 10.124 5.2592 9.545 C 5.8732 8.9658 6.7209 8.6072 7.6567 8.6072 Z"/>
      <path id="ID0.6595424772240222" fill="#fecc99" stroke="none" stroke-width="0.262427" d="M 7.5268 9.9076 C 8.1006 9.9076 8.6205 10.1334 8.997 10.4983 C 9.3735 10.8633 9.6064 11.3672 9.6064 11.9232 C 9.6064 12.4793 9.3735 12.9832 8.997 13.3481 C 8.6205 13.7131 8.1006 13.9388 7.5268 13.9388 C 6.953 13.9388 6.4331 13.7131 6.0566 13.3481 C 5.6801 12.9832 5.4472 12.4793 5.4472 11.9232 C 5.4472 11.3672 5.6801 10.8633 6.0566 10.4983 C 6.4331 10.1334 6.953 9.9076 7.5268 9.9076 Z"/>
    </g>
    <g id="ID0.45486381743103266">
      <path id="ID0.1028266386128962" fill="url(#grad_6-.25595,0,0,0.25595,-18.9,-15.8)" stroke="none" stroke-width="0.25595" d="M 28.7067 8.7072 C 29.6425 8.7072 30.4902 9.0658 31.1042 9.645 C 31.718 10.224 32.098 11.0238 32.098 11.9066 C 32.098 12.7894 31.718 13.5892 31.1042 14.1682 C 30.4902 14.7474 29.6425 15.106 28.7067 15.106 C 27.7709 15.106 26.9232 14.7474 26.3092 14.1682 C 25.6954 13.5892 25.3154 12.7894 25.3154 11.9066 C 25.3154 11.0238 25.6954 10.224 26.3092 9.645 C 26.9232 9.0658 27.7709 8.7072 28.7067 8.7072 Z"/>
      <path id="ID0.6595424772240222" fill="#fecc99" stroke="none" stroke-width="0.262427" d="M 29.1268 9.9076 C 29.7006 9.9076 30.2205 10.1334 30.597 10.4983 C 30.9735 10.8633 31.2064 11.3672 31.2064 11.9232 C 31.2064 12.4793 30.9735 12.9832 30.597 13.3481 C 30.2205 13.7131 29.7006 13.9388 29.1268 13.9388 C 28.553 13.9388 28.0331 13.7131 27.6566 13.3481 C 27.2801 12.9832 27.0472 12.4793 27.0472 11.9232 C 27.0472 11.3672 27.2801 10.8633 27.6566 10.4983 C 28.0331 10.1334 28.553 9.9076 29.1268 9.9076 Z"/>
    </g>
    <g id="ID0.29344215244054794">
      <g id="ID0.08768309932202101">
        <g id="ID0.4464206430129707">
          <path id="ID0.012127960566431284" fill="#cd9933" stroke="none" stroke-width="0.288395" d="M 18.2518 2.1685 C 21.1162 2.1685 23.7117 3.3157 25.5912 5.169 C 27.4707 7.0225 28.6341 9.582 28.6341 12.4065 C 28.6341 15.2311 27.4707 17.7906 25.5912 19.6441 C 23.7117 21.4973 21.1162 22.6446 18.2518 22.6446 C 15.3875 22.6446 12.7919 21.4973 10.9125 19.6441 C 9.033 17.7906 7.8696 15.2311 7.8696 12.4065 C 7.8696 9.582 9.033 7.0225 10.9125 5.169 C 12.7919 3.3157 15.3875 2.1685 18.2518 2.1685 Z"/>
          <path id="ID0.8087072358466685" fill="#ffcb99" stroke="none" stroke-linecap="round" stroke-width="0.25595" d="M 19.8 6.0828 C 21.2323 5.9958 22.7524 6.3329 23.8952 7.1066 C 25.1903 8.0032 26.2067 9.3715 26.7107 10.8179 C 27.1619 12.1038 26.7795 13.5271 26.7107 14.9131 C 26.6935 15.2596 26.4732 14.7677 26.5827 14.9131 C 27.0204 15.4943 27.6838 15.9671 28.0544 16.6407 C 28.3001 17.1785 28.4752 17.8347 28.3744 18.4324 C 28.2067 19.4244 28.0519 20.5957 27.2866 21.2478 C 25.8069 22.503 23.8755 23.4073 21.9116 23.8073 C 19.5546 24.3021 17.0657 24.2309 14.617 23.8713 C 12.7995 23.6041 10.9698 22.9952 9.434 21.9517 C 8.5835 21.3517 8.1064 20.2535 7.8344 19.2002 C 7.6201 18.3686 7.8423 17.4869 8.1543 16.6407 C 8.3911 16.0011 8.9905 15.5726 9.434 15.041 C 9.5449 14.9082 9.6554 14.9535 9.69 14.6571 C 9.8282 13.4718 9.4863 12.2207 9.818 11.0738 C 10.1863 9.8046 10.7814 8.3817 11.8656 7.4905 C 12.9275 6.6464 14.3926 6.2366 15.8328 6.2108 C 16.6731 6.1967 17.3219 7.0654 18.0084 7.4905 C 18.1801 7.5967 17.7422 7.6095 17.8804 7.4905 C 18.4315 7.0152 19.0076 6.1312 19.8 6.0828 Z"/>
        </g>
        <path id="ID0.4197602206841111" fill="url(#grad_7-.292955,0,0,0.292955,-48.050000000000004,-20.349999999999998)" stroke="none" stroke-linecap="round" stroke-width="0.292955" d="M 18.2677 16.5623 C 19.4911 16.5641 20.7915 16.3737 21.8491 16.9285 C 22.7522 17.4046 23.6484 18.3206 23.6947 19.3015 C 23.7184 20.3025 22.8896 21.2783 22.0213 21.7503 C 20.9057 22.3567 19.4922 22.1891 18.2018 22.1724 C 16.9749 22.1891 15.632 22.3163 14.5141 21.7503 C 13.6285 21.3023 12.6963 20.4311 12.6356 19.4333 C 12.6339 18.4569 13.4934 17.4614 14.3641 17.0018 C 15.5218 16.3904 16.9602 16.5609 18.2677 16.5623 Z"/>
        <path id="ID0.7313267411664128" fill="url(#grad_8-.25595,0,0,0.25595,-41.300000000000004,-15.4)" stroke="none" stroke-linecap="round" stroke-width="0.25595" d="M 10.8498 18.4494 C 11.2911 18.4494 11.6911 18.6142 11.9806 18.8807 C 12.2703 19.1471 12.4495 19.5152 12.4495 19.9211 C 12.4495 20.327 12.2703 20.6951 11.9806 20.9615 C 11.6911 21.228 11.2911 21.3928 10.8498 21.3928 C 10.4086 21.3928 10.0085 21.228 9.719 20.9615 C 9.4293 20.6951 9.2501 20.327 9.2501 19.9211 C 9.2501 19.5152 9.4293 19.1471 9.719 18.8807 C 10.0085 18.6142 10.4086 18.4494 10.8498 18.4494 Z"/>
        <path id="ID0.7313267411664128" fill="url(#grad_9-.25595,0,0,0.25595,-26.55,-15.75)" stroke="none" stroke-width="0.25595" d="M 25.5998 18.0994 C 26.0411 18.0994 26.4411 18.2642 26.7306 18.5307 C 27.0203 18.7971 27.1995 19.1652 27.1995 19.5711 C 27.1995 19.977 27.0203 20.3451 26.7306 20.6115 C 26.4411 20.878 26.0411 21.0428 25.5998 21.0428 C 25.1586 21.0428 24.7585 20.878 24.469 20.6115 C 24.1793 20.3451 24.0001 19.977 24.0001 19.5711 C 24.0001 19.1652 24.1793 18.7971 24.469 18.5307 C 24.7585 18.2642 25.1586 18.0994 25.5998 18.0994 Z"/>
      </g>
      <path id="ID0.3959277127869427" fill="#cd9933" stroke="none" stroke-linecap="round" stroke-width="0.25595" d="M 16.7725 0.282 C 16.9478 0.2791 16.9253 1.0846 17.1564 1.4337 C 17.3844 1.7555 17.8162 1.8832 18.1162 2.1376 C 18.3578 2.3421 18.7292 2.4637 18.8201 2.7775 C 18.902 2.9676 18.6951 3.1752 18.5293 3.3357 C 18.3399 3.5174 18.1019 3.6733 17.8282 3.6733 C 17.5546 3.6733 17.2549 3.5612 17.1272 3.3357 C 16.7852 2.691 16.5183 2.0582 16.4525 1.3697 C 16.4154 0.96 16.6291 0.2525 16.7725 0.282 Z"/>
    </g>
    <path id="ID0.9467326030135155" fill="#ffffff" stroke="none" stroke-width="0.25595" d="M 12.9796 11.3759 C 13.5091 11.3759 13.989 11.7345 14.3366 12.3137 C 14.6842 12.8927 14.8992 13.6925 14.8992 14.5753 C 14.8992 15.458 14.6842 16.2579 14.3366 16.8368 C 13.989 17.4161 13.5091 17.7747 12.9796 17.7747 C 12.45 17.7747 11.9701 17.4161 11.6225 16.8368 C 11.2749 16.2579 11.0599 15.458 11.0599 14.5753 C 11.0599 13.6925 11.2749 12.8927 11.6225 12.3137 C 11.9701 11.7345 12.45 11.3759 12.9796 11.3759 Z"/>
    <path id="ID0.8799754590727389" fill="#9a6732" stroke="none" stroke-width="0.293272" d="M 12.9603 13.9249 C 13.3398 13.9249 13.6838 14.1256 13.9329 14.4501 C 14.1819 14.7744 14.336 15.2222 14.336 15.7166 C 14.336 16.2109 14.1819 16.6588 13.9329 16.983 C 13.6838 17.3076 13.3398 17.5082 12.9603 17.5082 C 12.5807 17.5082 12.2367 17.3076 11.9877 16.983 C 11.7386 16.6588 11.5845 16.2109 11.5845 15.7166 C 11.5845 15.2222 11.7386 14.7744 11.9877 14.4501 C 12.2367 14.1256 12.5807 13.9249 12.9603 13.9249 Z"/>
    <path id="ID0.9467326030135155" fill="#ffffff" stroke="none" stroke-width="0.25595" d="M 23.2796 11.4759 C 23.8091 11.4759 24.289 11.8345 24.6366 12.4137 C 24.9842 12.9927 25.1992 13.7925 25.1992 14.6753 C 25.1992 15.558 24.9842 16.3579 24.6366 16.9368 C 24.289 17.5161 23.8091 17.8747 23.2796 17.8747 C 22.75 17.8747 22.2701 17.5161 21.9225 16.9368 C 21.5749 16.3579 21.3599 15.558 21.3599 14.6753 C 21.3599 13.7925 21.5749 12.9927 21.9225 12.4137 C 22.2701 11.8345 22.75 11.4759 23.2796 11.4759 Z"/>
    <path id="ID0.8799754590727389" fill="#9a6732" stroke="none" stroke-width="0.293272" d="M 23.3103 14.0249 C 23.6898 14.0249 24.0338 14.2256 24.2829 14.5501 C 24.5319 14.8744 24.686 15.3222 24.686 15.8166 C 24.686 16.3109 24.5319 16.7588 24.2829 17.083 C 24.0338 17.4076 23.6898 17.6082 23.3103 17.6082 C 22.9307 17.6082 22.5867 17.4076 22.3377 17.083 C 22.0886 16.7588 21.9345 16.3109 21.9345 15.8166 C 21.9345 15.3222 22.0886 14.8744 22.3377 14.5501 C 22.5867 14.2256 22.9307 14.0249 23.3103 14.0249 Z"/>
    <path id="ID0.45482554798945785" fill="#343432" stroke="none" stroke-width="0.25595" d="M 18.2727 16.2039 C 18.7669 16.2039 19.2148 16.3185 19.5391 16.5038 C 19.8637 16.6892 20.0643 16.9451 20.0643 17.2277 C 20.0643 17.5102 19.8637 17.7662 19.5391 17.9515 C 19.2148 18.1368 18.7669 18.2515 18.2727 18.2515 C 17.7784 18.2515 17.3305 18.1368 17.0062 17.9515 C 16.6817 17.7662 16.481 17.5102 16.481 17.2277 C 16.481 16.9451 16.6817 16.6892 17.0062 16.5038 C 17.3305 16.3185 17.7784 16.2039 18.2727 16.2039 Z"/>
    <path id="ID0.49038872541859746" fill="none" stroke="#343432" stroke-linecap="round" stroke-width="0.658177" d="M 18.2087 17.2593 L 18.2087 19.1007"/>
    <path id="ID0.6056808498688042" fill="#343432" stroke="none" stroke-linecap="round" stroke-width="0.25595" d="M 18.1948 19.6632 C 18.8205 19.6612 19.4532 19.7259 20.0684 19.847 C 20.2222 19.8772 20.2002 19.9372 20.1627 20.0367 C 19.9799 20.4373 19.8342 20.9003 19.4868 21.1672 C 19.1441 21.4303 18.6729 21.5388 18.2413 21.5311 C 17.8099 21.5224 17.3398 21.3779 17.0016 21.1011 C 16.677 20.8357 16.5331 20.403 16.3605 20.0289 C 16.3256 19.9241 16.3157 19.8741 16.4584 19.8473 C 17.0297 19.7393 17.6164 19.6638 18.1948 19.6632 Z"/>
  </g>
</svg>