<svg xmlns="http://www.w3.org/2000/svg" viewBox="0.0274954 -0.313505 32.6219 45.7152" width="32.6219" height="45.7152" xmlns:xlink="http://www.w3.org/1999/xlink" version="1.1">
  <defs>
    <linearGradient id="grad_1" x2="0" y2="1">
      <stop stop-color="rgb(159, 122, 41)" stop-opacity="1" offset="0"/>
      <stop stop-color="rgb(210, 152, 57)" stop-opacity="1" offset="1"/>
    </linearGradient>
    <linearGradient id="grad_2" x2="0" y2="1">
      <stop stop-color="rgb(243, 178, 113)" stop-opacity="1" offset="0"/>
      <stop stop-color="rgb(255, 203, 153)" stop-opacity="1" offset="1"/>
    </linearGradient>
    <linearGradient id="grad_3" x2="0" y2="1">
      <stop stop-color="rgb(172, 127, 46)" stop-opacity="1" offset="0"/>
      <stop stop-color="rgb(210, 152, 57)" stop-opacity="1" offset="1"/>
    </linearGradient>
    <linearGradient id="grad_4" x2="0" y2="1">
      <stop stop-color="rgb(172, 127, 46)" stop-opacity="1" offset="0"/>
      <stop stop-color="rgb(210, 152, 57)" stop-opacity="1" offset="1"/>
    </linearGradient>
    <linearGradient id="grad_5" x2="1">
      <stop stop-color="rgb(203, 189, 124)" stop-opacity="1" offset="0"/>
      <stop stop-color="rgb(180, 129, 45)" stop-opacity="1" offset="1"/>
    </linearGradient>
    <linearGradient id="grad_6" x2="1">
      <stop stop-color="rgb(180, 129, 45)" stop-opacity="1" offset="0"/>
      <stop stop-color="rgb(203, 189, 124)" stop-opacity="1" offset="1"/>
    </linearGradient>
    <linearGradient id="grad_7" x2="0" y2="1">
      <stop stop-color="rgb(255, 203, 107)" stop-opacity="1" offset="0"/>
      <stop stop-color="rgb(255, 203, 153)" stop-opacity="1" offset="1"/>
    </linearGradient>
    <linearGradient id="grad_8" x2="1">
      <stop stop-color="rgb(254, 158, 108)" stop-opacity="1" offset="0"/>
      <stop stop-color="rgb(255, 203, 153)" stop-opacity="1" offset="1"/>
    </linearGradient>
    <linearGradient id="grad_9" x2="1">
      <stop stop-color="rgb(254, 158, 108)" stop-opacity="1" offset="0"/>
      <stop stop-color="rgb(255, 203, 153)" stop-opacity="1" offset="1"/>
    </linearGradient>
  <linearGradient id="grad_1-.417886,0,0,0.394557,-78.9,-38.65" gradientUnits="userSpaceOnUse" x1="12.7056" y1="21.7993" x2="12.7056" y2="36.7346">
      <stop stop-color="rgb(159, 122, 41)" stop-opacity="1" offset="0"/>
      <stop stop-color="rgb(210, 152, 57)" stop-opacity="1" offset="1"/>
    </linearGradient><linearGradient id="grad_2-.259721,0,0,0.259721,-42.050000000000004,-15" gradientUnits="userSpaceOnUse" x1="14.884" y1="24.7914" x2="14.884" y2="34.6227">
      <stop stop-color="rgb(243, 178, 113)" stop-opacity="1" offset="0"/>
      <stop stop-color="rgb(255, 203, 153)" stop-opacity="1" offset="1"/>
    </linearGradient><linearGradient id="grad_3-0.259721,0,0,0.259721,78.3,-16.95" gradientUnits="userSpaceOnUse" x1="29.1615" y1="25.8988" x2="29.1615" y2="33.7803">
      <stop stop-color="rgb(172, 127, 46)" stop-opacity="1" offset="0"/>
      <stop stop-color="rgb(210, 152, 57)" stop-opacity="1" offset="1"/>
    </linearGradient><linearGradient id="grad_4-.259721,0,0,0.259721,-42.050000000000004,-16.85" gradientUnits="userSpaceOnUse" x1="7.1048" y1="26.016" x2="7.1048" y2="33.8796">
      <stop stop-color="rgb(172, 127, 46)" stop-opacity="1" offset="0"/>
      <stop stop-color="rgb(210, 152, 57)" stop-opacity="1" offset="1"/>
    </linearGradient><linearGradient id="grad_5-.259721,0,0,0.259721,-40.85,-16.2" gradientUnits="userSpaceOnUse" x1="4.0168" y1="8.6683" x2="10.8994" y2="8.6683">
      <stop stop-color="rgb(203, 189, 124)" stop-opacity="1" offset="0"/>
      <stop stop-color="rgb(180, 129, 45)" stop-opacity="1" offset="1"/>
    </linearGradient><linearGradient id="grad_6-.259721,0,0,0.259721,-19.599999999999998,-16.1" gradientUnits="userSpaceOnUse" x1="25.2668" y1="8.7683" x2="32.1494" y2="8.7683">
      <stop stop-color="rgb(180, 129, 45)" stop-opacity="1" offset="0"/>
      <stop stop-color="rgb(203, 189, 124)" stop-opacity="1" offset="1"/>
    </linearGradient><linearGradient id="grad_7-.297272,0,0,0.297272,-49.050000000000004,-20.8" gradientUnits="userSpaceOnUse" x1="12.5299" y1="16.6257" x2="12.5299" y2="22.3832">
      <stop stop-color="rgb(255, 203, 107)" stop-opacity="1" offset="0"/>
      <stop stop-color="rgb(255, 203, 153)" stop-opacity="1" offset="1"/>
    </linearGradient><linearGradient id="grad_8-.259721,0,0,0.259721,-42.25,-15.65" gradientUnits="userSpaceOnUse" x1="9.0449" y1="18.6981" x2="12.2914" y2="18.6981">
      <stop stop-color="rgb(254, 158, 108)" stop-opacity="1" offset="0"/>
      <stop stop-color="rgb(255, 203, 153)" stop-opacity="1" offset="1"/>
    </linearGradient><linearGradient id="grad_9-.259721,0,0,0.259721,-27.25,-16" gradientUnits="userSpaceOnUse" x1="24.0449" y1="18.3481" x2="27.2914" y2="18.3481">
      <stop stop-color="rgb(254, 158, 108)" stop-opacity="1" offset="0"/>
      <stop stop-color="rgb(255, 203, 153)" stop-opacity="1" offset="1"/>
    </linearGradient></defs>
  <!-- Exported by Scratch - http://scratch.mit.edu/ -->
  <g id="ID0.8544336622580886">
    <g id="ID0.4129900340922177">
      <path id="ID0.4288085182197392" fill="#b4852d" stroke="none" stroke-linecap="round" stroke-width="0.259721" d="M 22.2165 34.6002 C 21.1343 34.5332 19.6975 34.9176 19.1388 35.5611 C 18.8274 35.8915 20.099 36.1237 20.4764 36.5481 C 20.8439 36.961 21.0974 37.4724 21.2815 38.0025 C 21.4446 38.47 21.4693 38.9809 21.5023 39.4959 C 21.5786 40.6917 21.3807 41.9137 21.5932 43.0931 C 21.6314 43.3915 21.9506 43.3143 22.1516 43.3268 C 22.5916 43.3541 23.3424 43.6431 23.5151 43.2229 C 24.0164 41.8539 23.792 40.3039 23.8398 38.8466 C 23.8551 38.3825 23.7587 37.9355 23.658 37.4636 C 23.5362 36.8959 23.3982 36.3188 23.1515 35.7949 C 22.9107 35.3503 22.7206 34.6313 22.2165 34.6002 Z"/>
      <path id="ID0.9969862452708185" fill="#fdcb96" stroke="none" stroke-linecap="round" stroke-width="0.259721" d="M 22.7126 42.2699 C 22.257 42.2218 21.7394 42.4335 21.4044 42.6982 C 21.0693 42.9626 20.9392 43.3501 20.8621 43.7308 C 20.8 44.0381 20.7488 44.4983 21.0179 44.6593 C 21.4924 44.9432 22.1233 44.8294 22.6801 44.8281 C 23.2105 44.8294 23.8029 44.9263 24.2644 44.6593 C 24.5927 44.4695 24.7709 43.9983 24.7319 43.6204 C 24.6984 43.3046 24.3478 43.102 24.0826 42.9192 C 23.6663 42.6348 23.2222 42.3239 22.7126 42.2699 Z"/>
      <path id="ID0.9179897592402995" fill="#cc9832" stroke="none" stroke-linecap="round" stroke-width="0.259721" d="M 22.46 42.2185 C 22.1174 42.2369 21.7359 42.2255 21.4502 42.4089 C 21.2383 42.5444 21.1175 42.8569 21.1354 43.1275 C 21.1388 43.2529 21.344 43.2854 21.499 43.3093 C 22.0977 43.3981 22.6966 43.4425 23.3171 43.4132 C 23.5957 43.3997 23.9025 43.3597 24.1222 43.1794 C 24.236 43.0857 24.1487 42.88 24.0832 42.7379 C 23.9991 42.5566 23.8544 42.36 23.6677 42.3094 C 23.2794 42.1759 22.8542 42.1974 22.46 42.2185 Z"/>
    </g>
    <path id="ID0.13197573041543365" fill="#a97a2a" stroke="none" stroke-linecap="round" stroke-width="0.259721" d="M 5.0946 26.832 C 6.0259 27.2198 6.7973 27.9636 7.497 28.689 C 7.8798 29.1168 8.1359 29.6695 8.2762 30.2214 C 8.5117 31.1483 8.4694 32.1277 8.5748 33.0783 C 8.6712 33.9455 8.5647 34.8322 8.8605 35.6366 C 9.0312 36.0994 9.4 36.5144 9.8345 36.6495 C 10.5653 36.8967 11.3767 36.7767 12.107 36.7014 C 12.9836 36.6118 13.8633 36.5001 14.7042 36.195 C 15.3094 35.9755 15.7548 35.28 16.3665 35.208 C 17.309 35.0974 19.587 35.2306 19.1844 35.6366 C 18.4759 36.3513 15.7675 37.1998 13.9586 37.6556 C 12.7672 37.9554 11.518 38.039 10.315 37.9351 C 9.5667 37.851 8.739 37.6302 8.2372 37.104 C 7.6972 36.5378 7.5663 35.6672 7.4321 34.8964 C 7.231 33.7424 7.4266 32.5784 7.2373 31.4421 C 7.123 30.7569 6.9601 29.985 6.4971 29.4292 C 5.9046 28.7301 5.0813 28.2137 4.2115 27.8449 C 3.0981 27.3733 1.746 27.6037 0.6793 27.0008 C 0.378 26.8305 0.5614 26.004 0.9131 25.9879 C 2.3117 25.924 3.7832 26.2861 5.0946 26.832 Z"/>
    <g id="ID0.7912502754479647">
      <path id="ID0.4288085182197392" fill="#b4852d" stroke="none" stroke-linecap="round" stroke-width="0.259721" d="M 14.0335 34.6502 C 15.1157 34.5832 16.5525 34.9676 17.1112 35.6111 C 17.4226 35.9415 16.151 36.1737 15.7736 36.5981 C 15.4061 37.011 15.1526 37.5224 14.9685 38.0525 C 14.8054 38.52 14.7807 39.0309 14.7477 39.5459 C 14.6714 40.7417 14.8693 41.9637 14.6568 43.1431 C 14.6186 43.4415 14.2994 43.3643 14.0984 43.3768 C 13.6584 43.4041 12.9076 43.6931 12.7349 43.2729 C 12.2336 41.9039 12.458 40.3539 12.4102 38.8966 C 12.3949 38.4325 12.4913 37.9855 12.592 37.5136 C 12.7138 36.9459 12.8518 36.3688 13.0985 35.8449 C 13.3393 35.4003 13.5294 34.6813 14.0335 34.6502 Z"/>
      <path id="ID0.9969862452708185" fill="#fdcb96" stroke="none" stroke-linecap="round" stroke-width="0.259721" d="M 13.5874 42.3199 C 14.043 42.2718 14.5606 42.4835 14.8956 42.7482 C 15.2307 43.0126 15.3608 43.4001 15.4379 43.7808 C 15.5 44.0881 15.5512 44.5483 15.2821 44.7093 C 14.8076 44.9932 14.1767 44.8794 13.6199 44.8781 C 13.0895 44.8794 12.4971 44.9763 12.0356 44.7093 C 11.7073 44.5195 11.5291 44.0483 11.5681 43.6704 C 11.6016 43.3546 11.9522 43.152 12.2174 42.9692 C 12.6337 42.6848 13.0778 42.3739 13.5874 42.3199 Z"/>
      <path id="ID0.9179897592402995" fill="#cc9832" stroke="none" stroke-linecap="round" stroke-width="0.259721" d="M 13.94 42.2685 C 14.2826 42.2869 14.6641 42.2755 14.9498 42.4589 C 15.1617 42.5944 15.2825 42.9069 15.2646 43.1775 C 15.2612 43.3029 15.056 43.3354 14.901 43.3593 C 14.3023 43.4481 13.7034 43.4925 13.0829 43.4632 C 12.8043 43.4497 12.4975 43.4097 12.2778 43.2294 C 12.164 43.1357 12.2513 42.93 12.3168 42.7879 C 12.4009 42.6066 12.5456 42.41 12.7323 42.3594 C 13.1206 42.2259 13.5458 42.2474 13.94 42.2685 Z"/>
    </g>
    <g id="ID0.5157573288306594">
      <path id="ID0.49259263556450605" fill="url(#grad_1-.417886,0,0,0.394557,-78.9,-38.65)" stroke="none" stroke-linecap="round" stroke-width="0.406389" d="M 22.6463 22.0131 C 23.4173 22.1185 23.1306 22.1433 23.1687 23.0982 C 23.3203 26.9171 23.6179 30.7972 23.1687 34.639 C 23.0575 35.5579 22.3471 36.074 21.6016 36.4145 C 20.6576 36.8457 19.5339 36.7104 18.4674 36.7104 C 17.2631 36.7104 15.9342 36.8603 14.8109 36.4145 C 13.9952 36.0862 13.1741 35.5003 13.0349 34.5403 C 12.4787 30.7001 12.7579 26.7999 12.9304 22.9009 C 12.9735 21.9259 12.9121 22.0747 13.6617 22.0131 C 16.6613 21.7661 19.6935 21.6924 22.6463 22.0131 Z"/>
      <path id="ID0.49259263556450605" fill="url(#grad_2-.259721,0,0,0.259721,-42.050000000000004,-15)" stroke="none" stroke-linecap="round" stroke-width="0.259721" d="M 21.0622 24.9321 C 21.5414 25.0014 21.3632 25.0178 21.3869 25.6463 C 21.4811 28.1602 21.6661 30.7143 21.3869 33.2432 C 21.3178 33.8481 20.8762 34.1878 20.4129 34.4119 C 19.8262 34.6958 19.1278 34.6067 18.465 34.6067 C 17.7165 34.6067 16.8906 34.7054 16.1924 34.4119 C 15.6855 34.1958 15.1751 33.8101 15.0886 33.1782 C 14.7429 30.6504 14.9164 28.083 15.0237 25.5165 C 15.0504 24.8747 15.0123 24.9726 15.4782 24.9321 C 17.3425 24.7695 19.227 24.721 21.0622 24.9321 Z"/>
      <path id="ID0.9902052730321884" fill="#fccded" stroke="none" stroke-linecap="round" stroke-width="0.259721" d="M 18.2655 32.8633 C 18.4089 32.8633 18.5387 32.9069 18.6327 32.9776 C 18.7268 33.048 18.7849 33.1454 18.7849 33.2529 C 18.7849 33.3604 18.7268 33.4578 18.6327 33.5282 C 18.5387 33.5988 18.4089 33.6425 18.2655 33.6425 C 18.1221 33.6425 17.9923 33.5988 17.8983 33.5282 C 17.8042 33.4578 17.7461 33.3604 17.7461 33.2529 C 17.7461 33.1454 17.8042 33.048 17.8983 32.9776 C 17.9923 32.9069 18.1221 32.8633 18.2655 32.8633 Z"/>
    </g>
    <g id="ID0.35395473008975387">
      <path id="ID0.4081752202473581" fill="#fccd97" stroke="none" stroke-linecap="round" stroke-width="0.259721" d="M 28.2735 32.747 C 28.5639 32.7667 28.9408 32.3714 29.1501 32.5522 C 29.4631 32.9085 29.4215 33.4926 29.4098 33.9157 C 29.402 34.2142 29.2826 34.5305 29.0769 34.7419 C 28.8712 34.9536 28.587 35.0845 28.2735 35.0845 C 27.9601 35.0845 27.6759 34.9536 27.4702 34.7419 C 27.2645 34.5305 27.1471 34.2134 27.1373 33.9157 C 27.123 33.4952 27.0822 32.9083 27.397 32.5522 C 27.6048 32.3709 27.9764 32.7262 28.2735 32.747 Z"/>
      <path id="ID0.30281658796593547" fill="url(#grad_3-0.259721,0,0,0.259721,78.3,-16.95)" stroke="none" stroke-width="0.259721" d="M 25.6675 26.6831 C 24.8598 26.219 23.9173 25.8507 23.0054 25.904 C 22.6137 25.9564 22.259 26.6369 22.46 26.9428 C 22.7854 27.435 23.5864 27.3498 24.0832 27.6571 C 24.7214 28.0919 25.3598 28.5492 25.8364 29.1505 C 26.267 29.6962 26.5231 30.4623 26.7454 31.1633 C 26.9854 31.9207 26.6244 33.0266 27.2648 33.5657 C 27.716 33.9667 28.9582 33.7881 29.0829 33.1762 C 29.3722 31.7511 28.8198 30.2226 28.1349 28.9557 C 27.5874 27.942 26.6332 27.2405 25.6675 26.6831 Z"/>
      <path id="ID0.30041926680132747" fill="#cd9934" stroke="none" stroke-linecap="round" stroke-width="0.259721" d="M 28.2095 32.5678 C 28.5498 32.5678 28.8583 32.6405 29.0817 32.7582 C 29.305 32.8756 29.4432 33.0379 29.4432 33.2171 C 29.4432 33.3963 29.305 33.5587 29.0817 33.6761 C 28.8583 33.7937 28.5498 33.8664 28.2095 33.8664 C 27.8693 33.8664 27.5608 33.7937 27.3374 33.6761 C 27.114 33.5587 26.9759 33.3963 26.9759 33.2171 C 26.9759 33.0379 27.114 32.8756 27.3374 32.7582 C 27.5608 32.6405 27.8693 32.5678 28.2095 32.5678 Z"/>
    </g>
    <g id="ID0.1456865668296814">
      <path id="ID0.4081752202473581" fill="#fccd97" stroke="none" stroke-linecap="round" stroke-width="0.259721" d="M 8.2235 32.847 C 8.5139 32.8667 8.8908 32.4714 9.1001 32.6522 C 9.4131 33.0085 9.3715 33.5926 9.3598 34.0157 C 9.352 34.3142 9.2326 34.6305 9.0269 34.8419 C 8.8212 35.0536 8.537 35.1845 8.2235 35.1845 C 7.9101 35.1845 7.6259 35.0536 7.4202 34.8419 C 7.2145 34.6305 7.0971 34.3134 7.0873 34.0157 C 7.073 33.5952 7.0322 33.0083 7.347 32.6522 C 7.5548 32.4709 7.9264 32.8262 8.2235 32.847 Z"/>
      <path id="ID0.30281658796593547" fill="url(#grad_4-.259721,0,0,0.259721,-42.050000000000004,-16.85)" stroke="none" stroke-width="0.259721" d="M 10.9331 26.3935 C 11.459 26.0562 12.1829 25.9362 12.8161 26.0689 C 13.2649 26.1632 13.9222 26.6478 13.79 27.0428 C 13.6277 27.5218 12.6636 27.4498 12.1668 27.7571 C 11.5286 28.1919 10.8902 28.6492 10.4136 29.2505 C 9.983 29.7962 9.7269 30.5623 9.5046 31.2633 C 9.2646 32.0207 9.6256 33.1266 8.9852 33.6657 C 8.534 34.0667 7.2773 33.8855 7.1671 33.2762 C 6.9139 31.8716 7.471 30.4117 8.1411 29.1855 C 8.7616 28.0433 9.8378 27.1369 10.9331 26.3935 Z"/>
      <path id="ID0.30041926680132747" fill="#cd9934" stroke="none" stroke-linecap="round" stroke-width="0.259721" d="M 8.2595 32.6678 C 8.5998 32.6678 8.9083 32.7405 9.1317 32.8582 C 9.355 32.9756 9.4932 33.1379 9.4932 33.3171 C 9.4932 33.4963 9.355 33.6587 9.1317 33.7761 C 8.9083 33.8937 8.5998 33.9664 8.2595 33.9664 C 7.9193 33.9664 7.6108 33.8937 7.3874 33.7761 C 7.164 33.6587 7.0259 33.4963 7.0259 33.3171 C 7.0259 33.1379 7.164 32.9756 7.3874 32.8582 C 7.6108 32.7405 7.9193 32.6678 8.2595 32.6678 Z"/>
    </g>
    <g id="ID0.9301250060088933">
      <path id="ID0.676788670476526" fill="#cd9934" stroke="none" stroke-width="0.259721" d="M 13.0322 23.3186 C 13.5428 23.3186 14.0054 23.5513 14.3404 23.9276 C 14.6755 24.3037 14.8827 24.8231 14.8827 25.3963 C 14.8827 25.9695 14.6755 26.489 14.3404 26.8651 C 14.0054 27.2414 13.5428 27.4741 13.0322 27.4741 C 12.5216 27.4741 12.059 27.2414 11.724 26.8651 C 11.3889 26.489 11.1817 25.9695 11.1817 25.3963 C 11.1817 24.8231 11.3889 24.3037 11.724 23.9276 C 12.059 23.5513 12.5216 23.3186 13.0322 23.3186 Z"/>
      <path id="ID0.676788670476526" fill="#cd9934" stroke="none" stroke-width="0.259721" d="M 16.2822 23.2686 C 16.7928 23.2686 17.2554 23.5013 17.5904 23.8776 C 17.9255 24.2537 18.1327 24.7731 18.1327 25.3463 C 18.1327 25.9195 17.9255 26.439 17.5904 26.8151 C 17.2554 27.1914 16.7928 27.4241 16.2822 27.4241 C 15.7716 27.4241 15.309 27.1914 14.974 26.8151 C 14.6389 26.439 14.4317 25.9195 14.4317 25.3463 C 14.4317 24.7731 14.6389 24.2537 14.974 23.8776 C 15.309 23.5013 15.7716 23.2686 16.2822 23.2686 Z"/>
      <path id="ID0.676788670476526" fill="#cd9934" stroke="none" stroke-width="0.259721" d="M 19.8822 23.2686 C 20.3928 23.2686 20.8554 23.5013 21.1904 23.8776 C 21.5255 24.2537 21.7327 24.7731 21.7327 25.3463 C 21.7327 25.9195 21.5255 26.439 21.1904 26.8151 C 20.8554 27.1914 20.3928 27.4241 19.8822 27.4241 C 19.3716 27.4241 18.909 27.1914 18.574 26.8151 C 18.2389 26.439 18.0317 25.9195 18.0317 25.3463 C 18.0317 24.7731 18.2389 24.2537 18.574 23.8776 C 18.909 23.5013 19.3716 23.2686 19.8822 23.2686 Z"/>
      <path id="ID0.676788670476526" fill="#cd9934" stroke="none" stroke-width="0.259721" d="M 23.4822 23.1686 C 23.9928 23.1686 24.4554 23.4013 24.7904 23.7776 C 25.1255 24.1537 25.3327 24.6731 25.3327 25.2463 C 25.3327 25.8195 25.1255 26.339 24.7904 26.7151 C 24.4554 27.0914 23.9928 27.3241 23.4822 27.3241 C 22.9716 27.3241 22.509 27.0914 22.174 26.7151 C 21.8389 26.339 21.6317 25.8195 21.6317 25.2463 C 21.6317 24.6731 21.8389 24.1537 22.174 23.7776 C 22.509 23.4013 22.9716 23.1686 23.4822 23.1686 Z"/>
      <path id="ID0.303304610773921" fill="#cd9934" stroke="none" stroke-width="0.259721" d="M 18.0053 22.729 C 19.5997 22.729 21.0443 22.9072 22.0904 23.1952 C 23.1366 23.4832 23.7841 23.8808 23.7841 24.3198 C 23.7841 24.7587 23.1366 25.1563 22.0904 25.4444 C 21.0443 25.7324 19.5997 25.9106 18.0053 25.9106 C 16.4108 25.9106 14.9663 25.7324 13.9201 25.4444 C 12.874 25.1563 12.2265 24.7587 12.2265 24.3198 C 12.2265 23.8808 12.874 23.4832 13.9201 23.1952 C 14.9663 22.9072 16.4108 22.729 18.0053 22.729 Z"/>
    </g>
    <g id="ID0.01950056990608573">
      <g id="ID0.7608959171921015">
        <path id="ID0.1028266386128962" fill="url(#grad_5-.259721,0,0,0.259721,-40.85,-16.2)" stroke="none" stroke-width="0.259721" d="M 7.4581 8.6683 C 8.4076 8.6683 9.2678 9.0322 9.8909 9.6199 C 10.5137 10.2074 10.8994 11.019 10.8994 11.9148 C 10.8994 12.8106 10.5137 13.6222 9.8909 14.2097 C 9.2678 14.7974 8.4076 15.1613 7.4581 15.1613 C 6.5086 15.1613 5.6484 14.7974 5.0253 14.2097 C 4.4025 13.6222 4.0168 12.8106 4.0168 11.9148 C 4.0168 11.019 4.4025 10.2074 5.0253 9.6199 C 5.6484 9.0322 6.5086 8.6683 7.4581 8.6683 Z"/>
        <path id="ID0.6595424772240222" fill="#fecc99" stroke="none" stroke-width="0.266293" d="M 7.2211 9.9025 C 7.8034 9.9025 8.3309 10.1316 8.713 10.5019 C 9.095 10.8723 9.3314 11.3836 9.3314 11.9478 C 9.3314 12.5121 9.095 13.0234 8.713 13.3937 C 8.3309 13.7641 7.8034 13.9931 7.2211 13.9931 C 6.6388 13.9931 6.1113 13.7641 5.7293 13.3937 C 5.3472 13.0234 5.1109 12.5121 5.1109 11.9478 C 5.1109 11.3836 5.3472 10.8723 5.7293 10.5019 C 6.1113 10.1316 6.6388 9.9025 7.2211 9.9025 Z"/>
      </g>
      <g id="ID0.45486381743103266">
        <path id="ID0.1028266386128962" fill="url(#grad_6-.259721,0,0,0.259721,-19.599999999999998,-16.1)" stroke="none" stroke-width="0.259721" d="M 28.7081 8.7683 C 29.6576 8.7683 30.5178 9.1322 31.1409 9.7199 C 31.7637 10.3074 32.1494 11.119 32.1494 12.0148 C 32.1494 12.9106 31.7637 13.7222 31.1409 14.3097 C 30.5178 14.8974 29.6576 15.2613 28.7081 15.2613 C 27.7586 15.2613 26.8984 14.8974 26.2753 14.3097 C 25.6525 13.7222 25.2668 12.9106 25.2668 12.0148 C 25.2668 11.119 25.6525 10.3074 26.2753 9.7199 C 26.8984 9.1322 27.7586 8.7683 28.7081 8.7683 Z"/>
        <path id="ID0.6595424772240222" fill="#fecc99" stroke="none" stroke-width="0.266293" d="M 29.1211 9.9525 C 29.7034 9.9525 30.2309 10.1816 30.613 10.5519 C 30.995 10.9223 31.2314 11.4336 31.2314 11.9978 C 31.2314 12.5621 30.995 13.0734 30.613 13.4437 C 30.2309 13.8141 29.7034 14.0431 29.1211 14.0431 C 28.5388 14.0431 28.0113 13.8141 27.6293 13.4437 C 27.2472 13.0734 27.0109 12.5621 27.0109 11.9978 C 27.0109 11.4336 27.2472 10.9223 27.6293 10.5519 C 28.0113 10.1816 28.5388 9.9525 29.1211 9.9525 Z"/>
      </g>
      <g id="ID0.29344215244054794">
        <g id="ID0.08768309932202101">
          <g id="ID0.4464206430129707">
            <path id="ID0.012127960566431284" fill="#cd9933" stroke="none" stroke-width="0.292644" d="M 18.1897 2.1328 C 21.0963 2.1328 23.7301 3.2969 25.6372 5.1775 C 27.5444 7.0583 28.7249 9.6555 28.7249 12.5217 C 28.7249 15.3878 27.5444 17.985 25.6372 19.8658 C 23.7301 21.7464 21.0963 22.9105 18.1897 22.9105 C 15.2832 22.9105 12.6494 21.7464 10.7422 19.8658 C 8.8351 17.985 7.6545 15.3878 7.6545 12.5217 C 7.6545 9.6555 8.8351 7.0583 10.7422 5.1775 C 12.6494 3.2969 15.2832 2.1328 18.1897 2.1328 Z"/>
            <path id="ID0.8087072358466685" fill="#ffcb99" stroke="none" stroke-linecap="round" stroke-width="0.259721" d="M 19.7532 6.1259 C 21.2066 6.0376 22.7491 6.3797 23.9087 7.1648 C 25.2229 8.0746 26.2543 9.4631 26.7656 10.9308 C 27.2235 12.2356 26.8355 13.6799 26.7656 15.0863 C 26.7482 15.438 26.5246 14.9388 26.6358 15.0863 C 27.0799 15.6761 27.7531 16.1558 28.1292 16.8394 C 28.3785 17.3851 28.5562 18.051 28.4538 18.6575 C 28.2837 19.6641 28.1266 20.8526 27.35 21.5144 C 25.8486 22.7881 23.8887 23.7056 21.8959 24.1116 C 19.5041 24.6136 16.9786 24.5414 14.4938 24.1765 C 12.6496 23.9054 10.7928 23.2875 9.2345 22.2286 C 8.3714 21.6198 7.8873 20.5054 7.6112 19.4366 C 7.3938 18.5928 7.6193 17.698 7.9359 16.8394 C 8.1761 16.1904 8.7844 15.7556 9.2345 15.2161 C 9.3469 15.0814 9.4591 15.1273 9.4942 14.8266 C 9.6344 13.6238 9.2875 12.3543 9.6241 11.1905 C 9.9978 9.9025 10.6017 8.4587 11.7018 7.5544 C 12.7794 6.6978 14.2661 6.282 15.7275 6.2558 C 16.5802 6.2415 17.2386 7.123 17.9351 7.5544 C 18.1094 7.6622 17.665 7.6752 17.8053 7.5544 C 18.3645 7.0721 18.9491 6.175 19.7532 6.1259 Z"/>
          </g>
          <path id="ID0.4197602206841111" fill="url(#grad_7-.297272,0,0,0.297272,-49.050000000000004,-20.8)" stroke="none" stroke-linecap="round" stroke-width="0.297272" d="M 18.2449 16.6563 C 19.4864 16.6581 20.8059 16.4648 21.8791 17.0279 C 22.7956 17.5109 23.7049 18.4405 23.7519 19.4358 C 23.776 20.4515 22.935 21.4418 22.0539 21.9207 C 20.9219 22.536 19.4875 22.366 18.1781 22.349 C 16.9331 22.366 15.5704 22.495 14.436 21.9207 C 13.5373 21.4661 12.5914 20.582 12.5299 19.5695 C 12.5281 18.5787 13.4003 17.5686 14.2838 17.1022 C 15.4586 16.4818 16.9182 16.6548 18.2449 16.6563 Z"/>
          <path id="ID0.7313267411664128" fill="url(#grad_8-.259721,0,0,0.259721,-42.25,-15.65)" stroke="none" stroke-linecap="round" stroke-width="0.259721" d="M 10.6682 18.6981 C 11.1159 18.6981 11.5219 18.8654 11.8156 19.1357 C 12.1096 19.4061 12.2914 19.7796 12.2914 20.1915 C 12.2914 20.6034 12.1096 20.9769 11.8156 21.2473 C 11.5219 21.5176 11.1159 21.6849 10.6682 21.6849 C 10.2204 21.6849 9.8145 21.5176 9.5207 21.2473 C 9.2267 20.9769 9.0449 20.6034 9.0449 20.1915 C 9.0449 19.7796 9.2267 19.4061 9.5207 19.1357 C 9.8145 18.8654 10.2204 18.6981 10.6682 18.6981 Z"/>
          <path id="ID0.7313267411664128" fill="url(#grad_9-.259721,0,0,0.259721,-27.25,-16)" stroke="none" stroke-width="0.259721" d="M 25.6682 18.3481 C 26.1159 18.3481 26.5219 18.5154 26.8156 18.7857 C 27.1096 19.0561 27.2914 19.4296 27.2914 19.8415 C 27.2914 20.2534 27.1096 20.6269 26.8156 20.8973 C 26.5219 21.1676 26.1159 21.3349 25.6682 21.3349 C 25.2204 21.3349 24.8145 21.1676 24.5207 20.8973 C 24.2267 20.6269 24.0449 20.2534 24.0449 19.8415 C 24.0449 19.4296 24.2267 19.0561 24.5207 18.7857 C 24.8145 18.5154 25.2204 18.3481 25.6682 18.3481 Z"/>
        </g>
        <path id="ID0.3959277127869427" fill="#cd9933" stroke="none" stroke-linecap="round" stroke-width="0.259721" d="M 16.6902 0.1874 C 16.8681 0.1845 16.8452 1.0019 17.0798 1.3561 C 17.3112 1.6826 17.7493 1.8122 18.0537 2.0704 C 18.2989 2.2779 18.6758 2.4013 18.768 2.7197 C 18.8511 2.9127 18.6412 3.1233 18.4729 3.2861 C 18.2807 3.4705 18.0392 3.6287 17.7615 3.6287 C 17.4839 3.6287 17.1798 3.5149 17.0502 3.2861 C 16.7032 2.6319 16.4323 1.9899 16.3655 1.2912 C 16.3279 0.8754 16.5447 0.1575 16.6902 0.1874 Z"/>
      </g>
      <g id="ID0.8275393634103239">
        <g id="ID0.2137008528225124">
          <path id="ID0.9467326030135155" fill="#ffffff" stroke="none" stroke-width="0.259721" d="M 12.7668 11.386 C 13.3041 11.386 13.7911 11.7498 14.1438 12.3376 C 14.4965 12.9251 14.7147 13.7367 14.7147 14.6325 C 14.7147 15.5283 14.4965 16.3399 14.1438 16.9274 C 13.7911 17.5151 13.3041 17.879 12.7668 17.879 C 12.2294 17.879 11.7424 17.5151 11.3897 16.9274 C 11.037 16.3399 10.8189 15.5283 10.8189 14.6325 C 10.8189 13.7367 11.037 12.9251 11.3897 12.3376 C 11.7424 11.7498 12.2294 11.386 12.7668 11.386 Z"/>
          <path id="ID0.8799754590727389" fill="#9a6732" stroke="none" stroke-width="0.297594" d="M 13.2373 12.3563 C 13.6224 12.3563 13.9715 12.5599 14.2242 12.8892 C 14.4769 13.2183 14.6333 13.6727 14.6333 14.1743 C 14.6333 14.676 14.4769 15.1304 14.2242 15.4595 C 13.9715 15.7888 13.6224 15.9924 13.2373 15.9924 C 12.8521 15.9924 12.503 15.7888 12.2503 15.4595 C 11.9976 15.1304 11.8413 14.676 11.8413 14.1743 C 11.8413 13.6727 11.9976 13.2183 12.2503 12.8892 C 12.503 12.5599 12.8521 12.3563 13.2373 12.3563 Z"/>
        </g>
        <g id="ID0.19029833981767297">
          <path id="ID0.9467326030135155" fill="#ffffff" stroke="none" stroke-width="0.259721" d="M 23.3668 11.586 C 23.9041 11.586 24.3911 11.9498 24.7438 12.5376 C 25.0965 13.1251 25.3147 13.9367 25.3147 14.8325 C 25.3147 15.7283 25.0965 16.5399 24.7438 17.1274 C 24.3911 17.7151 23.9041 18.079 23.3668 18.079 C 22.8294 18.079 22.3424 17.7151 21.9897 17.1274 C 21.637 16.5399 21.4189 15.7283 21.4189 14.8325 C 21.4189 13.9367 21.637 13.1251 21.9897 12.5376 C 22.3424 11.9498 22.8294 11.586 23.3668 11.586 Z"/>
          <path id="ID0.8799754590727389" fill="#9a6732" stroke="none" stroke-width="0.297594" d="M 22.9373 12.4063 C 23.3224 12.4063 23.6715 12.6099 23.9242 12.9392 C 24.1769 13.2683 24.3333 13.7227 24.3333 14.2243 C 24.3333 14.726 24.1769 15.1804 23.9242 15.5095 C 23.6715 15.8388 23.3224 16.0424 22.9373 16.0424 C 22.5521 16.0424 22.203 15.8388 21.9503 15.5095 C 21.6976 15.1804 21.5413 14.726 21.5413 14.2243 C 21.5413 13.7227 21.6976 13.2683 21.9503 12.9392 C 22.203 12.6099 22.5521 12.4063 22.9373 12.4063 Z"/>
        </g>
        <g id="ID0.5057853814214468">
          <path id="ID0.45482554798945785" fill="#343432" stroke="none" stroke-width="0.259721" d="M 18.1268 16.4158 C 18.6283 16.4158 19.0828 16.5322 19.4119 16.7202 C 19.7412 16.9083 19.9449 17.168 19.9449 17.4547 C 19.9449 17.7414 19.7412 18.0012 19.4119 18.1892 C 19.0828 18.3772 18.6283 18.4936 18.1268 18.4936 C 17.6253 18.4936 17.1708 18.3772 16.8417 18.1892 C 16.5124 18.0012 16.3088 17.7414 16.3088 17.4547 C 16.3088 17.168 16.5124 16.9083 16.8417 16.7202 C 17.1708 16.5322 17.6253 16.4158 18.1268 16.4158 Z"/>
          <path id="ID0.49038872541859746" fill="none" stroke="#343432" stroke-linecap="round" stroke-width="0.667875" d="M 18.0619 17.4336 L 18.0619 19.3022"/>
          <path id="ID0.6056808498688042" fill="#343432" stroke="none" stroke-linecap="round" stroke-width="0.259721" d="M 18.122 19.983 C 18.7569 19.981 19.399 20.0465 20.0232 20.1695 C 20.1793 20.2001 20.157 20.261 20.1189 20.3619 C 19.9334 20.7685 19.7856 21.2382 19.433 21.5092 C 19.0853 21.7761 18.6072 21.8862 18.1692 21.8784 C 17.7315 21.8695 17.2545 21.7229 16.9113 21.442 C 16.5819 21.1728 16.4359 20.7337 16.2607 20.3541 C 16.2253 20.2477 16.2152 20.197 16.36 20.1697 C 16.9398 20.0602 17.5351 19.9836 18.122 19.983 Z"/>
        </g>
      </g>
    </g>
  </g>
</svg>