<svg xmlns="http://www.w3.org/2000/svg" viewBox="-0.23513 -0.2556 29.1255 44.6648" width="29.1255" height="44.6648" xmlns:xlink="http://www.w3.org/1999/xlink" version="1.1">
  <!-- Exported by Scratch - http://scratch.mit.edu/ -->
  <g id="ID0.8665216066874564">
    <g id="R_Arm">
      <path id="Arm_1_" fill="#594a42" stroke="#000000" stroke-width="0.336622" d="M 20.3625 25.5284 C 20.8787 25.6136 22.8352 25.9526 23.6232 27.054 C 24.6182 28.4456 24.9555 29.5327 24.9559 29.5448 C 24.9852 30.4682 26.6255 30.9452 26.6255 29.3351 L 26.6255 29.3351 C 26.6173 29.2651 26.4 27.606 24.8685 25.9216 C 23.1253 24.005 20.5322 23.7746 19.7781 23.8305 C 19.7781 23.8305 19.2611 23.9029 19.3185 24.4923 C 19.3749 25.0812 20.3625 25.5284 20.3625 25.5284 L 20.3625 25.5284 L 20.3625 25.5284 L 20.3625 25.5284 L 20.3625 25.5284 L 20.3625 25.5284 L 20.3625 25.5284 L 20.3625 25.5284 L 20.3625 25.5284 L 20.3625 25.5284 L 20.3625 25.5284 L 20.3625 25.5284 L 20.3625 25.5284 Z"/>
      <path id="Hand_1_" fill="#9b8579" stroke="#000000" stroke-width="0.336622" d="M 24.5435 30.2216 C 24.5435 30.2216 23.993 32.0648 24.6677 32.2275 C 25.3423 32.3906 25.3775 31.2966 25.3775 31.2966 C 25.3775 31.2966 26.6299 33.503 27.9446 32.4393 C 29.2593 31.3759 27.2476 29.461 27.2476 29.461 C 27.2476 29.461 26.5944 29.0422 25.8218 29.1981 C 25.0505 29.3535 24.5435 30.2216 24.5435 30.2216 L 24.5435 30.2216 L 24.5435 30.2216 L 24.5435 30.2216 L 24.5435 30.2216 L 24.5435 30.2216 L 24.5435 30.2216 L 24.5435 30.2216 L 24.5435 30.2216 L 24.5435 30.2216 L 24.5435 30.2216 L 24.5435 30.2216 L 24.5435 30.2216 Z"/>
    </g>
    <g id="L_Arm">
      <path id="Arm" fill="#594a42" stroke="#000000" stroke-width="0.336622" d="M 15.604 24.602 C 15.5909 24.0099 15.0688 23.9998 15.0688 23.9998 C 14.3136 24.034 11.7662 24.5709 10.2633 26.681 C 8.9429 28.5358 8.9244 30.2086 8.9246 30.2793 L 8.9246 30.2793 C 9.1161 31.8779 10.688 31.2096 10.6074 30.2893 C 10.6064 30.2771 10.8117 29.1574 11.6346 27.6574 C 12.2858 26.4703 14.188 25.9009 14.6906 25.755 C 14.6904 25.7548 15.6178 25.1933 15.604 24.602 L 15.604 24.602 L 15.604 24.602 L 15.604 24.602 L 15.604 24.602 L 15.604 24.602 L 15.604 24.602 L 15.604 24.602 L 15.604 24.602 L 15.604 24.602 L 15.604 24.602 L 15.604 24.602 L 15.604 24.602 Z"/>
      <path id="Hand" fill="#9b8579" stroke="#000000" stroke-width="0.336622" d="M 9.7059 30.0474 C 8.9204 29.9846 8.3217 30.4781 8.3217 30.4781 C 8.3217 30.4781 6.5521 32.6189 7.9839 33.5181 C 9.4157 34.4183 10.3968 32.0782 10.3968 32.0782 C 10.3968 32.0782 10.5616 33.1605 11.2123 32.9184 C 11.863 32.6764 11.0971 30.9118 11.0971 30.9118 C 11.0971 30.9118 10.4906 30.1102 9.7059 30.0474 L 9.7059 30.0474 L 9.7059 30.0474 L 9.7059 30.0474 L 9.7059 30.0474 L 9.7059 30.0474 L 9.7059 30.0474 L 9.7059 30.0474 L 9.7059 30.0474 L 9.7059 30.0474 L 9.7059 30.0474 L 9.7059 30.0474 L 9.7059 30.0474 Z"/>
    </g>
    <path id="Tail" fill="#594a42" stroke="#000000" stroke-width="0.336622" d="M 13.1214 38.5984 C 11.7115 39.0844 9.9764 39.3427 7.8649 39.1444 C 3.0706 38.6947 0.8179 34.7204 0.2966 32.6816 C 0.1584 32.1412 0.4845 31.5906 1.0247 31.4528 C 1.5652 31.3151 2.1152 31.6408 2.2532 32.1812 C 2.301 32.3623 3.4969 36.7063 8.0536 37.134 C 14.3521 37.7251 16.4996 33.5232 16.5881 33.3439 C 16.8339 32.8459 17.4369 32.6365 17.9365 32.8794 C 18.4362 33.1219 18.6474 33.7199 18.4074 34.221 C 18.3266 34.389 16.8828 37.3026 13.1214 38.5984 L 13.1214 38.5984 L 13.1214 38.5984 L 13.1214 38.5984 L 13.1214 38.5984 L 13.1214 38.5984 L 13.1214 38.5984 L 13.1214 38.5984 L 13.1214 38.5984 L 13.1214 38.5984 L 13.1214 38.5984 L 13.1214 38.5984 L 13.1214 38.5984 L 13.1214 38.5984 Z"/>
    <g id="L_Leg">
      <path id="Leg_1_" fill="#594a42" stroke="#000000" stroke-width="0.336622" d="M 14.2606 42.4465 C 13.7381 42.1271 13.3685 41.319 13.1911 40.651 C 12.9211 39.6339 12.7441 38.9155 13.0228 37.0905 C 13.1839 36.0369 13.9354 34.5814 13.9354 34.5814 C 13.9354 34.5814 14.4814 33.3577 15.3802 33.8344 C 15.8568 34.0899 15.3802 35.4938 15.3802 35.4938 C 15.3802 35.4938 15.0026 36.6624 14.8986 38.5352 C 14.8229 39.904 15.6422 41.7331 15.4352 42.4743 C 15.3574 42.753 14.7835 42.7665 14.2606 42.4465 L 14.2606 42.4465 L 14.2606 42.4465 L 14.2606 42.4465 L 14.2606 42.4465 L 14.2606 42.4465 L 14.2606 42.4465 L 14.2606 42.4465 L 14.2606 42.4465 L 14.2606 42.4465 L 14.2606 42.4465 L 14.2606 42.4465 L 14.2606 42.4465 Z"/>
      <path id="Foot_1_" fill="#c2b59b" stroke="#000000" stroke-linecap="round" stroke-linejoin="round" stroke-width="0.336622" d="M 15.6845 42.87 C 15.6845 42.87 15.1778 39.5748 11.4772 39.7266 C 7.7764 39.8788 7.9107 42.0554 7.9536 42.6162 C 8.0553 43.9341 9.8296 43.9092 9.8296 43.9092 L 15.71 43.301 L 15.6845 42.87 L 15.6845 42.87 L 15.6845 42.87 L 15.6845 42.87 L 15.6845 42.87 L 15.6845 42.87 L 15.6845 42.87 L 15.6845 42.87 L 15.6845 42.87 L 15.6845 42.87 L 15.6845 42.87 L 15.6845 42.87 L 15.6845 42.87 Z"/>
    </g>
    <g id="R_Leg">
      <path id="Leg" fill="#594a42" stroke="#000000" stroke-width="0.336622" d="M 20.637 42.4745 C 20.4302 41.7332 21.2495 39.9042 21.1736 38.5353 C 21.0696 36.6625 20.6921 35.4939 20.6921 35.4939 C 20.6921 35.4939 20.2154 34.0899 20.6921 33.8346 C 21.5908 33.3579 22.1368 34.5815 22.1368 34.5815 C 22.1368 34.5815 22.8883 36.0371 23.0492 37.0907 C 23.328 38.9159 23.1511 39.6341 22.8809 40.6512 C 22.7035 41.3192 22.3339 42.1272 21.8115 42.4467 C 21.2889 42.7665 20.7148 42.753 20.637 42.4745 L 20.637 42.4745 L 20.637 42.4745 L 20.637 42.4745 L 20.637 42.4745 L 20.637 42.4745 L 20.637 42.4745 L 20.637 42.4745 L 20.637 42.4745 L 20.637 42.4745 L 20.637 42.4745 L 20.637 42.4745 L 20.637 42.4745 Z"/>
      <path id="Foot" fill="#c2b59b" stroke="#000000" stroke-linecap="round" stroke-linejoin="round" stroke-width="0.336622" d="M 20.3625 43.3009 L 26.2428 43.909 C 26.2428 43.909 28.0169 43.9339 28.1188 42.616 C 28.1619 42.0552 28.296 39.8786 24.595 39.7265 C 20.8944 39.5746 20.3877 42.8698 20.3877 42.8698 L 20.3625 43.3009 L 20.3625 43.3009 L 20.3625 43.3009 L 20.3625 43.3009 L 20.3625 43.3009 L 20.3625 43.3009 L 20.3625 43.3009 L 20.3625 43.3009 L 20.3625 43.3009 L 20.3625 43.3009 L 20.3625 43.3009 L 20.3625 43.3009 L 20.3625 43.3009 Z"/>
    </g>
    <g id="Body_1_">
      <path id="Body" fill="#594a42" stroke="#000000" stroke-width="0.336622" d="M 22.3546 34.2244 C 23.278 32.9506 23.5557 31.1589 23.0981 29.4321 C 22.7106 27.9698 22.8685 28.5333 21.9699 26.5028 C 19.9326 21.899 15.7097 21.3516 14.0651 24.7259 C 13.4313 26.0264 13.2916 26.6497 13.2921 26.6569 L 13.2943 26.6898 L 13.2837 26.7226 C 13.2748 26.7492 12.3928 29.3991 12.6749 31.7078 C 12.9376 33.858 14.9877 36.0349 18.3978 36.0349 C 18.5564 36.0349 18.7189 36.0303 18.8809 36.0211 C 20.3632 35.9361 21.5641 35.3147 22.3546 34.2244 L 22.3546 34.2244 L 22.3546 34.2244 L 22.3546 34.2244 L 22.3546 34.2244 L 22.3546 34.2244 L 22.3546 34.2244 L 22.3546 34.2244 L 22.3546 34.2244 L 22.3546 34.2244 L 22.3546 34.2244 L 22.3546 34.2244 L 22.3546 34.2244 Z"/>
      <path id="Belly" fill="#c2b59b" stroke="#000000" stroke-width="0.336622" d="M 14.867 35.0318 C 14.7189 34.6886 14.1515 33.2382 14.3572 31.6086 C 14.593 29.7407 15.7718 28.3804 17.6756 28.1993 C 19.5793 28.0182 21.1933 29.4144 21.7191 31.2818 C 22.0774 32.5544 22.1284 34.1628 22.1353 34.5129 L 22.1331 34.5457 C 21.3786 35.3531 20.3011 35.897 18.8901 35.9783 C 17.2701 36.0714 15.9216 35.7038 14.8862 35.0668 L 14.867 35.0318 L 14.867 35.0318 L 14.867 35.0318 L 14.867 35.0318 L 14.867 35.0318 L 14.867 35.0318 L 14.867 35.0318 L 14.867 35.0318 L 14.867 35.0318 L 14.867 35.0318 L 14.867 35.0318 L 14.867 35.0318 L 14.867 35.0318 Z"/>
    </g>
    <g id="R_Ear">
      <path id="Ear_1_" fill="#9b8579" stroke="#000000" stroke-width="0.336622" d="M 25.244 13.9249 C 25.244 13.9249 26.2152 13.8614 26.9357 13.3806 C 28.009 12.6641 28.2283 11.0402 27.2144 9.4631 C 26.2007 7.8862 25.34 7.8356 24.5674 8.2159 C 24.0191 8.4859 23.8903 9.197 23.8679 9.3542 L 23.8634 9.3724 C 24.7701 11.6335 24.8923 13.646 24.8923 13.646 C 24.8923 13.646 25.1484 13.7655 25.244 13.9249 L 25.244 13.9249 L 25.244 13.9249 L 25.244 13.9249 L 25.244 13.9249 L 25.244 13.9249 L 25.244 13.9249 L 25.244 13.9249 L 25.244 13.9249 L 25.244 13.9249 L 25.244 13.9249 L 25.244 13.9249 L 25.244 13.9249 Z"/>
      <path id="Inner_Ear_1_" fill="none" stroke="#000000" stroke-linecap="round" stroke-width="0.673244" d="M 25.9429 10.5607 C 25.9429 10.5607 25.6769 11.3112 24.5647 11.6835"/>
    </g>
    <g id="L_Ear">
      <path id="Ear" fill="#9b8579" stroke="#000000" stroke-width="0.336622" d="M 7.0171 11.365 C 7.0171 11.365 6.8845 10.5164 6.354 10.3838 C 5.8235 10.2512 4.5504 10.1717 3.7546 11.8691 C 2.9588 13.5666 3.3915 15.1472 4.5504 15.7152 C 5.1849 16.0261 5.9494 15.9884 6.2092 15.9641 C 6.2092 15.9641 6.6622 15.4782 6.7791 15.3745 C 6.7791 15.3744 6.6736 13.6403 7.026 11.478 L 7.0171 11.365 L 7.0171 11.365 L 7.0171 11.365 L 7.0171 11.365 L 7.0171 11.365 L 7.0171 11.365 L 7.0171 11.365 L 7.0171 11.365 L 7.0171 11.365 L 7.0171 11.365 L 7.0171 11.365 L 7.0171 11.365 L 7.0171 11.365 Z"/>
      <path id="Inner_Ear" fill="none" stroke="#000000" stroke-linecap="round" stroke-linejoin="round" stroke-width="0.673244" d="M 5.3222 12.8532 C 5.3222 12.8532 5.6853 13.5618 6.8369 13.7832"/>
    </g>
    <path id="Head_1_" fill="#726658" stroke="#000000" stroke-width="0.336622" d="M 25.2339 13.7359 C 24.6494 13.3986 24.0712 13.1995 23.6764 13.0897 L 23.673 13.0727 C 23.673 13.0727 21.9305 6.051 18.1645 6.051 C 16.3311 6.051 15.3032 9.1647 15.3032 9.1647 C 15.3032 9.1647 14.0128 6.1912 11.2498 6.654 C 8.1416 7.1748 7.8264 13.9893 7.8055 14.5542 L 7.8065 14.5901 C 7.4672 14.7915 7.0508 15.075 6.6428 15.4447 L 6.642 15.4057 C 6.6091 14.7242 6.2676 5.2032 12.7978 3.4753 L 12.8026 3.4554 C 12.785 3.24 12.7774 2.783 12.9154 2.0854 C 13.114 1.0821 13.7213 0.2444 13.7213 0.2444 C 13.7213 0.2444 13.8812 1.111 14.3146 1.7382 C 14.7606 2.3835 15.1519 2.5755 15.1519 2.5755 C 15.1519 2.5755 15.0161 2.0744 15.038 1.6754 C 15.0826 0.8651 15.4716 0.463 15.4716 0.463 C 15.4716 0.463 15.9432 1.6161 16.5322 2.281 C 17.1622 2.9921 17.9252 3.4571 17.9252 3.4571 L 17.9363 3.4601 C 24.7112 5.1449 25.229 13.646 25.229 13.646 L 25.2339 13.7359 L 25.2339 13.7359 L 25.2339 13.7359 L 25.2339 13.7359 L 25.2339 13.7359 L 25.2339 13.7359 L 25.2339 13.7359 L 25.2339 13.7359 L 25.2339 13.7359 L 25.2339 13.7359 L 25.2339 13.7359 L 25.2339 13.7359 L 25.2339 13.7359 Z"/>
    <path id="Face" fill="#c2b59b" stroke="#000000" stroke-width="0.336622" d="M 23.673 13.0727 C 23.673 13.0727 21.9305 6.051 18.1645 6.051 C 16.3311 6.051 15.3032 9.1647 15.3032 9.1647 C 15.3032 9.1647 14.0128 6.1912 11.2498 6.654 C 8.1312 7.1765 7.8243 14.0346 7.8053 14.5596 L 7.7947 14.5971 C 6.694 15.2535 5.3628 16.5512 5.5579 19.074 C 5.8314 22.6086 10.3771 25.2292 17.3501 24.5021 C 24.8125 23.7236 27.6209 20.1418 26.7757 16.3917 C 26.2852 14.2154 24.6839 13.3722 23.6865 13.0929 L 23.673 13.0727 L 23.673 13.0727 L 23.673 13.0727 L 23.673 13.0727 L 23.673 13.0727 L 23.673 13.0727 L 23.673 13.0727 L 23.673 13.0727 L 23.673 13.0727 L 23.673 13.0727 L 23.673 13.0727 L 23.673 13.0727 L 23.673 13.0727 Z"/>
    <path id="Mouth" fill="undefined" stroke-width="0.168311" d="M 18.9227 19.7501 C 18.8202 19.5973 18.6119 19.5568 18.4576 19.6568 C 18.4519 19.6607 17.8528 20.0357 16.1269 20.1701 C 15.8613 19.1917 16.0329 18.5726 16.0359 18.5625 C 16.0623 18.4738 16.0122 18.3801 15.9233 18.3533 C 15.8335 18.3263 15.7404 18.3769 15.7134 18.4656 C 15.7042 18.496 15.5157 19.1509 15.7846 20.1927 C 14.1662 20.2781 13.5093 20.019 13.4913 20.0117 C 13.3225 19.9382 13.1252 20.0139 13.0495 20.1826 C 12.9735 20.3522 13.0494 20.5513 13.2191 20.6273 C 13.2871 20.6579 13.8237 20.8788 15.09 20.8845 C 15.3802 20.8858 15.7088 20.8758 16.0787 20.8496 C 18.0705 20.7087 18.7644 20.2633 18.837 20.2131 C 18.9881 20.1081 19.025 19.9027 18.9227 19.7501 L 18.9227 19.7501 L 18.9227 19.7501 L 18.9227 19.7501 L 18.9227 19.7501 L 18.9227 19.7501 L 18.9227 19.7501 L 18.9227 19.7501 L 18.9227 19.7501 L 18.9227 19.7501 L 18.9227 19.7501 L 18.9227 19.7501 L 18.9227 19.7501 Z"/>
    <path id="Nose" fill="#726658" stroke="#000000" stroke-width="0.276898" d="M 15.7478 16.6017 C 16.318 16.5813 16.839 16.6801 17.2199 16.8561 C 17.6007 17.0322 17.8417 17.2856 17.852 17.5742 C 17.8623 17.8628 17.6401 18.1327 17.2727 18.3355 C 16.9053 18.5383 16.3927 18.6739 15.8225 18.6943 C 15.2524 18.7146 14.7314 18.6159 14.3505 18.4398 C 13.9696 18.2638 13.7287 18.0104 13.7183 17.7218 C 13.708 17.4332 13.9303 17.1633 14.2977 16.9605 C 14.665 16.7577 15.1776 16.6221 15.7478 16.6017 L 15.7478 16.6017 L 15.7478 16.6017 L 15.7478 16.6017 L 15.7478 16.6017 L 15.7478 16.6017 L 15.7478 16.6017 L 15.7478 16.6017 L 15.7478 16.6017 L 15.7478 16.6017 L 15.7478 16.6017 L 15.7478 16.6017 Z"/>
    <g id="L_Eye_1_">
      <path id="White" fill="#f1f2f2" stroke-width="0.168311" d="M 21.8296 15.7746 C 21.8725 14.7317 21.8767 10.9966 19.7176 11.2199 C 17.3226 11.4677 18.3373 15.5329 18.4332 15.8976 L 18.4349 15.9246 C 18.7848 15.8545 19.3075 15.7726 19.9554 15.7384 C 20.921 15.6877 21.5815 15.7561 21.8222 15.7884 L 21.8296 15.7746 L 21.8296 15.7746 L 21.8296 15.7746 L 21.8296 15.7746 L 21.8296 15.7746 L 21.8296 15.7746 L 21.8296 15.7746 L 21.8296 15.7746 L 21.8296 15.7746 L 21.8296 15.7746 L 21.8296 15.7746 L 21.8296 15.7746 L 21.8296 15.7746 Z"/>
      <path id="Pupil" fill="#594a42" stroke="#000000" stroke-width="0.336622" d="M 19.4165 15.6622 C 19.4165 15.6622 18.7965 12.4222 19.8965 12.4222 C 20.9961 12.4222 21.0762 15.6622 21.0762 15.6622"/>
      <path id="Outline" fill="undefined" stroke-width="0.168311" d="M 21.0675 11.3756 C 20.695 11.0112 20.232 10.8552 19.6915 10.9106 C 19.1166 10.9702 18.6692 11.2288 18.3615 11.6798 C 17.5744 12.8332 17.9626 14.9376 18.1323 15.6736 C 17.9729 15.7111 17.8817 15.7384 17.8709 15.7416 L 18.0185 16.2245 C 18.0261 16.2221 18.781 15.9947 19.9687 15.9325 C 20.694 15.8941 21.2439 15.9254 21.5637 15.9555 C 21.5635 15.9586 21.5632 15.9624 21.5632 15.9629 L 21.8006 15.9821 C 21.851 15.989 21.8777 15.9934 21.8791 15.9937 L 21.8801 15.9885 L 22.0664 16.0035 C 22.0775 15.8653 22.3254 12.6056 21.0675 11.3756 L 21.0675 11.3756 L 21.0675 11.3756 L 21.0675 11.3756 L 21.0675 11.3756 L 21.0675 11.3756 L 21.0675 11.3756 L 21.0675 11.3756 L 21.0675 11.3756 L 21.0675 11.3756 L 21.0675 11.3756 L 21.0675 11.3756 L 21.0675 11.3756 Z M 21.5844 15.4497 C 21.2417 15.4183 20.6805 15.389 19.942 15.428 C 19.414 15.4558 18.9695 15.5144 18.628 15.5735 C 18.4762 14.9118 18.105 12.951 18.7784 11.9644 C 19.0016 11.6373 19.3172 11.4569 19.7434 11.413 C 20.1334 11.3719 20.4501 11.4785 20.7142 11.7363 C 21.5345 12.538 21.602 14.5106 21.5844 15.4497 L 21.5844 15.4497 L 21.5844 15.4497 L 21.5844 15.4497 L 21.5844 15.4497 L 21.5844 15.4497 L 21.5844 15.4497 L 21.5844 15.4497 L 21.5844 15.4497 L 21.5844 15.4497 L 21.5844 15.4497 L 21.5844 15.4497 L 21.5844 15.4497 Z"/>
    </g>
    <g id="R_Eye_1_">
      <path id="White_1_" fill="#f1f2f2" stroke-width="0.168311" d="M 13.0922 16.3746 C 13.1351 15.3317 13.1393 11.5966 10.9802 11.8199 C 8.5852 12.0677 9.5999 16.1329 9.6959 16.4976 L 9.6975 16.5246 C 10.0475 16.4545 10.5701 16.3726 11.2181 16.3384 C 12.1837 16.2877 12.8441 16.3561 13.0848 16.3884 L 13.0922 16.3746 L 13.0922 16.3746 L 13.0922 16.3746 L 13.0922 16.3746 L 13.0922 16.3746 L 13.0922 16.3746 L 13.0922 16.3746 L 13.0922 16.3746 L 13.0922 16.3746 L 13.0922 16.3746 L 13.0922 16.3746 L 13.0922 16.3746 L 13.0922 16.3746 Z"/>
      <path id="Pupil_1_" fill="#594a42" stroke="#000000" stroke-width="0.336622" d="M 10.6791 16.2622 C 10.6791 16.2622 10.0591 13.0222 11.1591 13.0222 C 12.2587 13.0222 12.3388 16.2622 12.3388 16.2622"/>
      <path id="Outline_1_" fill="undefined" stroke-width="0.168311" d="M 12.3303 11.9756 C 11.9578 11.6112 11.4948 11.4552 10.9543 11.5106 C 10.3794 11.5702 9.932 11.8288 9.6243 12.2798 C 8.8371 13.4332 9.2254 15.5376 9.3951 16.2736 C 9.2357 16.3111 9.1445 16.3384 9.1337 16.3416 L 9.2813 16.8245 C 9.2889 16.8221 10.0438 16.5947 11.2315 16.5325 C 11.9568 16.4941 12.5066 16.5254 12.8264 16.5555 C 12.8263 16.5586 12.8259 16.5624 12.8259 16.5629 L 13.0634 16.5821 C 13.1137 16.589 13.1405 16.5934 13.1419 16.5937 L 13.1429 16.5885 L 13.3292 16.6035 C 13.3403 16.4653 13.588 13.2056 12.3303 11.9756 L 12.3303 11.9756 L 12.3303 11.9756 L 12.3303 11.9756 L 12.3303 11.9756 L 12.3303 11.9756 L 12.3303 11.9756 L 12.3303 11.9756 L 12.3303 11.9756 L 12.3303 11.9756 L 12.3303 11.9756 L 12.3303 11.9756 L 12.3303 11.9756 Z M 12.8471 16.0497 C 12.5045 16.0183 11.9433 15.989 11.2048 16.028 C 10.6768 16.0558 10.2323 16.1144 9.8908 16.1735 C 9.7389 15.5118 9.3678 13.551 10.0412 12.5644 C 10.2644 12.2373 10.58 12.0569 11.0062 12.013 C 11.3961 11.9719 11.7129 12.0785 11.977 12.3363 C 12.7972 13.138 12.8648 15.1106 12.8471 16.0497 L 12.8471 16.0497 L 12.8471 16.0497 L 12.8471 16.0497 L 12.8471 16.0497 L 12.8471 16.0497 L 12.8471 16.0497 L 12.8471 16.0497 L 12.8471 16.0497 L 12.8471 16.0497 L 12.8471 16.0497 L 12.8471 16.0497 L 12.8471 16.0497 Z"/>
    </g>
  </g>
</svg>