<svg xmlns="http://www.w3.org/2000/svg" viewBox="0.190688 -0.306601 32.5027 45.6884" width="32.5027" height="45.6884" xmlns:xlink="http://www.w3.org/1999/xlink" version="1.1">
  <defs>
    <linearGradient id="grad_1" x2="0" y2="1">
      <stop stop-color="rgb(159, 122, 41)" stop-opacity="1" offset="0"/>
      <stop stop-color="rgb(210, 152, 57)" stop-opacity="1" offset="1"/>
    </linearGradient>
    <linearGradient id="grad_2" x2="0" y2="1">
      <stop stop-color="rgb(243, 178, 113)" stop-opacity="1" offset="0"/>
      <stop stop-color="rgb(255, 203, 153)" stop-opacity="1" offset="1"/>
    </linearGradient>
    <linearGradient id="grad_3" x2="0" y2="1">
      <stop stop-color="rgb(172, 127, 46)" stop-opacity="1" offset="0"/>
      <stop stop-color="rgb(210, 152, 57)" stop-opacity="1" offset="1"/>
    </linearGradient>
    <linearGradient id="grad_4" x2="0" y2="1">
      <stop stop-color="rgb(172, 127, 46)" stop-opacity="1" offset="0"/>
      <stop stop-color="rgb(210, 152, 57)" stop-opacity="1" offset="1"/>
    </linearGradient>
    <linearGradient id="grad_5" x2="1">
      <stop stop-color="rgb(203, 189, 124)" stop-opacity="1" offset="0"/>
      <stop stop-color="rgb(180, 129, 45)" stop-opacity="1" offset="1"/>
    </linearGradient>
    <linearGradient id="grad_6" x2="1">
      <stop stop-color="rgb(180, 129, 45)" stop-opacity="1" offset="0"/>
      <stop stop-color="rgb(203, 189, 124)" stop-opacity="1" offset="1"/>
    </linearGradient>
    <linearGradient id="grad_7" x2="0" y2="1">
      <stop stop-color="rgb(255, 203, 107)" stop-opacity="1" offset="0"/>
      <stop stop-color="rgb(255, 203, 153)" stop-opacity="1" offset="1"/>
    </linearGradient>
    <linearGradient id="grad_8" x2="1">
      <stop stop-color="rgb(254, 158, 108)" stop-opacity="1" offset="0"/>
      <stop stop-color="rgb(255, 203, 153)" stop-opacity="1" offset="1"/>
    </linearGradient>
    <linearGradient id="grad_9" x2="1">
      <stop stop-color="rgb(254, 158, 108)" stop-opacity="1" offset="0"/>
      <stop stop-color="rgb(255, 203, 153)" stop-opacity="1" offset="1"/>
    </linearGradient>
  <linearGradient id="grad_1-.417029,0,0,0.393748,-78.55,-38.5" gradientUnits="userSpaceOnUse" x1="12.8678" y1="21.8254" x2="12.8678" y2="36.7301">
      <stop stop-color="rgb(159, 122, 41)" stop-opacity="1" offset="0"/>
      <stop stop-color="rgb(210, 152, 57)" stop-opacity="1" offset="1"/>
    </linearGradient><linearGradient id="grad_2-.259189,0,0,0.259189,-41.85,-14.9" gradientUnits="userSpaceOnUse" x1="14.9673" y1="24.8099" x2="14.9673" y2="34.621">
      <stop stop-color="rgb(243, 178, 113)" stop-opacity="1" offset="0"/>
      <stop stop-color="rgb(255, 203, 153)" stop-opacity="1" offset="1"/>
    </linearGradient><linearGradient id="grad_3-0.259189,0,0,0.259189,78.2,-16.9" gradientUnits="userSpaceOnUse" x1="29.1622" y1="25.8611" x2="29.1622" y2="33.7264">
      <stop stop-color="rgb(172, 127, 46)" stop-opacity="1" offset="0"/>
      <stop stop-color="rgb(210, 152, 57)" stop-opacity="1" offset="1"/>
    </linearGradient><linearGradient id="grad_4-.259189,0,0,0.259189,-41.85,-16.9" gradientUnits="userSpaceOnUse" x1="7.2041" y1="25.8782" x2="7.2041" y2="33.7257">
      <stop stop-color="rgb(172, 127, 46)" stop-opacity="1" offset="0"/>
      <stop stop-color="rgb(210, 152, 57)" stop-opacity="1" offset="1"/>
    </linearGradient><linearGradient id="grad_5-.259189,0,0,0.259189,-40.6,-16.15" gradientUnits="userSpaceOnUse" x1="4.1749" y1="8.6673" x2="11.0434" y2="8.6673">
      <stop stop-color="rgb(203, 189, 124)" stop-opacity="1" offset="0"/>
      <stop stop-color="rgb(180, 129, 45)" stop-opacity="1" offset="1"/>
    </linearGradient><linearGradient id="grad_6-.259189,0,0,0.259189,-19.45,-16.1" gradientUnits="userSpaceOnUse" x1="25.3249" y1="8.7173" x2="32.1934" y2="8.7173">
      <stop stop-color="rgb(180, 129, 45)" stop-opacity="1" offset="0"/>
      <stop stop-color="rgb(203, 189, 124)" stop-opacity="1" offset="1"/>
    </linearGradient><linearGradient id="grad_7-.296662,0,0,0.296662,-48.85,-20.7" gradientUnits="userSpaceOnUse" x1="12.6035" y1="16.6489" x2="12.6035" y2="22.3946">
      <stop stop-color="rgb(255, 203, 107)" stop-opacity="1" offset="0"/>
      <stop stop-color="rgb(255, 203, 153)" stop-opacity="1" offset="1"/>
    </linearGradient><linearGradient id="grad_8-.259189,0,0,0.259189,-42.1,-15.6" gradientUnits="userSpaceOnUse" x1="9.0898" y1="18.6777" x2="12.3297" y2="18.6777">
      <stop stop-color="rgb(254, 158, 108)" stop-opacity="1" offset="0"/>
      <stop stop-color="rgb(255, 203, 153)" stop-opacity="1" offset="1"/>
    </linearGradient><linearGradient id="grad_9-.259189,0,0,0.259189,-27.099999999999998,-15.95" gradientUnits="userSpaceOnUse" x1="24.0898" y1="18.3277" x2="27.3297" y2="18.3277">
      <stop stop-color="rgb(254, 158, 108)" stop-opacity="1" offset="0"/>
      <stop stop-color="rgb(255, 203, 153)" stop-opacity="1" offset="1"/>
    </linearGradient></defs>
  <!-- Exported by Scratch - http://scratch.mit.edu/ -->
  <g id="ID0.13725759088993073">
    <g id="ID0.4129900340922177">
      <path id="ID0.4288085182197392" fill="#b4852d" stroke="none" stroke-linecap="round" stroke-width="0.259189" d="M 22.1319 34.5476 C 21.0519 34.4807 19.618 34.8643 19.0605 35.5066 C 18.7497 35.8362 20.0187 36.068 20.3953 36.4915 C 20.7621 36.9036 21.0151 37.4139 21.1988 37.9429 C 21.3616 38.4095 21.3862 38.9193 21.4191 39.4333 C 21.4953 40.6266 21.2978 41.8461 21.5099 43.023 C 21.548 43.3208 21.8665 43.2439 22.0671 43.2563 C 22.5062 43.2835 23.2555 43.572 23.4279 43.1526 C 23.9281 41.7864 23.7041 40.2396 23.7518 38.7853 C 23.7671 38.3221 23.671 37.8761 23.5704 37.4051 C 23.4488 36.8385 23.3112 36.2626 23.065 35.7398 C 22.8247 35.2961 22.635 34.5787 22.1319 34.5476 Z"/>
      <path id="ID0.9969862452708185" fill="#fdcb96" stroke="none" stroke-linecap="round" stroke-width="0.259189" d="M 22.7772 42.2052 C 22.3226 42.1573 21.806 42.3685 21.4716 42.6326 C 21.1373 42.8965 21.0074 43.2832 20.9304 43.6632 C 20.8685 43.9698 20.8174 44.4291 21.086 44.5898 C 21.5595 44.8731 22.1891 44.7595 22.7448 44.7582 C 23.274 44.7595 23.8652 44.8562 24.3258 44.5898 C 24.6534 44.4003 24.8312 43.9301 24.7924 43.553 C 24.7589 43.2378 24.409 43.0357 24.1444 42.8532 C 23.7289 42.5694 23.2857 42.2591 22.7772 42.2052 Z"/>
      <path id="ID0.9179897592402995" fill="#cc9832" stroke="none" stroke-linecap="round" stroke-width="0.259189" d="M 22.4744 42.2012 C 22.1325 42.2196 21.7517 42.2082 21.4666 42.3912 C 21.2551 42.5265 21.1346 42.8383 21.1525 43.1083 C 21.1559 43.2335 21.3606 43.2659 21.5154 43.2898 C 22.1128 43.3784 22.7105 43.4227 23.3297 43.3934 C 23.6078 43.38 23.9139 43.3401 24.1332 43.1602 C 24.2467 43.0666 24.1596 42.8613 24.0943 42.7196 C 24.0103 42.5386 23.866 42.3424 23.6796 42.2919 C 23.2921 42.1587 22.8678 42.1802 22.4744 42.2012 Z"/>
    </g>
    <path id="ID0.13197573041543365" fill="#a97a2a" stroke="none" stroke-linecap="round" stroke-width="0.259189" d="M 5.2484 26.7482 C 6.1779 27.1352 6.9477 27.8775 7.6459 28.6014 C 8.028 29.0283 8.2835 29.5798 8.4235 30.1306 C 8.6586 31.0556 8.6163 32.0331 8.7215 32.9817 C 8.8177 33.8471 8.7114 34.732 9.0067 35.5347 C 9.1769 35.9966 9.545 36.4108 9.9786 36.5455 C 10.708 36.7923 11.5177 36.6725 12.2465 36.5974 C 13.1213 36.5079 13.9992 36.3965 14.8384 36.0919 C 15.4423 35.8729 15.8868 35.1788 16.4972 35.107 C 17.4378 34.9966 19.7112 35.1296 19.3094 35.5347 C 18.6023 36.248 15.8995 37.0948 14.0943 37.5496 C 12.9054 37.8487 11.6587 37.9322 10.4581 37.8285 C 9.7114 37.7445 8.8854 37.5242 8.3846 36.9991 C 7.8457 36.4341 7.7151 35.5653 7.5811 34.796 C 7.3805 33.6444 7.5757 32.4827 7.3867 31.3488 C 7.2727 30.6651 7.1102 29.8947 6.648 29.3401 C 6.0568 28.6423 5.2352 28.1271 4.3672 27.759 C 3.256 27.2883 1.9067 27.5182 0.8422 26.9167 C 0.5415 26.7466 0.7245 25.9219 1.0755 25.9058 C 2.4712 25.8421 3.9398 26.2034 5.2484 26.7482 Z"/>
    <g id="ID0.7912502754479647">
      <path id="ID0.4288085182197392" fill="#b4852d" stroke="none" stroke-linecap="round" stroke-width="0.259189" d="M 14.1181 34.5976 C 15.1981 34.5307 16.632 34.9143 17.1895 35.5566 C 17.5003 35.8862 16.2313 36.118 15.8547 36.5415 C 15.4879 36.9536 15.2349 37.4639 15.0512 37.9929 C 14.8884 38.4595 14.8638 38.9693 14.8309 39.4833 C 14.7547 40.6766 14.9522 41.8961 14.7401 43.073 C 14.702 43.3708 14.3835 43.2939 14.1829 43.3063 C 13.7438 43.3335 12.9945 43.622 12.8221 43.2026 C 12.3219 41.8364 12.5459 40.2896 12.4982 38.8353 C 12.4829 38.3721 12.579 37.9261 12.6796 37.4551 C 12.8012 36.8885 12.9388 36.3126 13.185 35.7898 C 13.4253 35.3461 13.615 34.6287 14.1181 34.5976 Z"/>
      <path id="ID0.9969862452708185" fill="#fdcb96" stroke="none" stroke-linecap="round" stroke-width="0.259189" d="M 13.7228 42.3052 C 14.1774 42.2573 14.694 42.4685 15.0284 42.7326 C 15.3627 42.9965 15.4926 43.3832 15.5696 43.7632 C 15.6315 44.0698 15.6826 44.5291 15.414 44.6898 C 14.9405 44.9731 14.3109 44.8595 13.7552 44.8582 C 13.226 44.8595 12.6348 44.9562 12.1742 44.6898 C 11.8466 44.5003 11.6688 44.0301 11.7076 43.653 C 11.7411 43.3378 12.091 43.1357 12.3556 42.9532 C 12.7711 42.6694 13.2143 42.3591 13.7228 42.3052 Z"/>
      <path id="ID0.9179897592402995" fill="#cc9832" stroke="none" stroke-linecap="round" stroke-width="0.259189" d="M 14.1256 42.2512 C 14.4675 42.2696 14.8483 42.2582 15.1334 42.4412 C 15.3449 42.5765 15.4654 42.8883 15.4475 43.1583 C 15.4441 43.2835 15.2394 43.3159 15.0846 43.3398 C 14.4872 43.4284 13.8895 43.4727 13.2703 43.4434 C 12.9922 43.43 12.6861 43.3901 12.4668 43.2102 C 12.3533 43.1166 12.4404 42.9113 12.5057 42.7696 C 12.5897 42.5886 12.734 42.3924 12.9204 42.3419 C 13.3079 42.2087 13.7322 42.2302 14.1256 42.2512 Z"/>
    </g>
    <g id="ID0.5157573288306594">
      <path id="ID0.49259263556450605" fill="url(#grad_1-.417029,0,0,0.393748,-78.55,-38.5)" stroke="none" stroke-linecap="round" stroke-width="0.405556" d="M 22.788 22.0388 C 23.5575 22.1439 23.2714 22.1687 23.3093 23.1216 C 23.4607 26.9326 23.7576 30.8048 23.3093 34.6387 C 23.1984 35.5557 22.4895 36.0708 21.7455 36.4106 C 20.8034 36.8409 19.682 36.7059 18.6178 36.7059 C 17.4159 36.7059 16.0897 36.8555 14.9688 36.4106 C 14.1547 36.083 13.3353 35.4982 13.1964 34.5403 C 12.6413 30.7079 12.9199 26.8157 13.0921 22.9247 C 13.1351 21.9517 13.0738 22.1002 13.8219 22.0388 C 16.8154 21.7923 19.8413 21.7186 22.788 22.0388 Z"/>
      <path id="ID0.49259263556450605" fill="url(#grad_2-.259189,0,0,0.259189,-41.85,-14.9)" stroke="none" stroke-linecap="round" stroke-width="0.259189" d="M 21.1329 24.9503 C 21.6111 25.0195 21.4333 25.0358 21.4569 25.6631 C 21.551 28.1718 21.7355 30.7206 21.4569 33.2444 C 21.388 33.848 20.9473 34.187 20.485 34.4107 C 19.8994 34.694 19.2025 34.6051 18.541 34.6051 C 17.7941 34.6051 16.9698 34.7036 16.2731 34.4107 C 15.7672 34.1951 15.2579 33.8102 15.1716 33.1796 C 14.8266 30.6569 14.9997 28.0948 15.1068 25.5335 C 15.1335 24.893 15.0954 24.9907 15.5604 24.9503 C 17.4208 24.7881 19.3015 24.7396 21.1329 24.9503 Z"/>
      <path id="ID0.9902052730321884" fill="#fccded" stroke="none" stroke-linecap="round" stroke-width="0.259189" d="M 18.2092 32.8148 C 18.3523 32.8148 18.4819 32.8583 18.5757 32.9288 C 18.6696 32.999 18.7276 33.0962 18.7276 33.2035 C 18.7276 33.3108 18.6696 33.408 18.5757 33.4783 C 18.4819 33.5488 18.3523 33.5923 18.2092 33.5923 C 18.0662 33.5923 17.9366 33.5488 17.8427 33.4783 C 17.7489 33.408 17.6909 33.3108 17.6909 33.2035 C 17.6909 33.0962 17.7489 32.999 17.8427 32.9288 C 17.9366 32.8583 18.0662 32.8148 18.2092 32.8148 Z"/>
    </g>
    <g id="ID0.35395473008975387">
      <path id="ID0.4081752202473581" fill="#fccd97" stroke="none" stroke-linecap="round" stroke-width="0.259189" d="M 28.2207 32.6459 C 28.5104 32.6656 28.8865 32.2711 29.0954 32.4515 C 29.4078 32.8071 29.3663 33.39 29.3546 33.8123 C 29.3468 34.1101 29.2276 34.4258 29.0223 34.6367 C 28.8171 34.848 28.5335 34.9786 28.2207 34.9786 C 27.9078 34.9786 27.6243 34.848 27.419 34.6367 C 27.2137 34.4258 27.0966 34.1093 27.0867 33.8123 C 27.0725 33.3926 27.0318 32.8069 27.3459 32.4515 C 27.5533 32.2706 27.9242 32.6252 28.2207 32.6459 Z"/>
      <path id="ID0.30281658796593547" fill="url(#grad_3-0.259189,0,0,0.259189,78.2,-16.9)" stroke="none" stroke-width="0.259189" d="M 25.6753 26.6438 C 24.8693 26.1806 23.9287 25.8131 23.0187 25.8662 C 22.6278 25.9185 22.2738 26.5976 22.4744 26.9029 C 22.7991 27.3941 23.5985 27.3091 24.0943 27.6157 C 24.7311 28.0496 25.3682 28.506 25.8438 29.106 C 26.2736 29.6506 26.5291 30.4152 26.751 31.1148 C 26.9905 31.8706 26.6302 32.9742 27.2694 33.5123 C 27.7196 33.9124 28.9593 33.7341 29.0837 33.1235 C 29.3724 31.7013 28.8211 30.176 28.1376 28.9117 C 27.5913 27.9 26.639 27.2 25.6753 26.6438 Z"/>
      <path id="ID0.30041926680132747" fill="#cd9934" stroke="none" stroke-linecap="round" stroke-width="0.259189" d="M 28.2324 32.4183 C 28.5719 32.4183 28.8799 32.4909 29.1028 32.6083 C 29.3257 32.7255 29.4636 32.8875 29.4636 33.0663 C 29.4636 33.2452 29.3257 33.4071 29.1028 33.5243 C 28.8799 33.6417 28.5719 33.7143 28.2324 33.7143 C 27.8929 33.7143 27.585 33.6417 27.362 33.5243 C 27.1391 33.4071 27.0013 33.2452 27.0013 33.0663 C 27.0013 32.8875 27.1391 32.7255 27.362 32.6083 C 27.585 32.4909 27.8929 32.4183 28.2324 32.4183 Z"/>
    </g>
    <g id="ID0.1456865668296814">
      <path id="ID0.4081752202473581" fill="#fccd97" stroke="none" stroke-linecap="round" stroke-width="0.259189" d="M 8.3707 32.7959 C 8.6604 32.8156 9.0365 32.4211 9.2454 32.6015 C 9.5578 32.9571 9.5163 33.54 9.5046 33.9623 C 9.4968 34.2601 9.3776 34.5758 9.1723 34.7867 C 8.9671 34.998 8.6835 35.1286 8.3707 35.1286 C 8.0578 35.1286 7.7743 34.998 7.569 34.7867 C 7.3637 34.5758 7.2466 34.2593 7.2367 33.9623 C 7.2225 33.5426 7.1818 32.9569 7.4959 32.6015 C 7.7033 32.4206 8.0742 32.7752 8.3707 32.7959 Z"/>
      <path id="ID0.30281658796593547" fill="url(#grad_4-.259189,0,0,0.259189,-41.85,-16.9)" stroke="none" stroke-width="0.259189" d="M 11.0246 26.255 C 11.5494 25.9183 12.2718 25.7985 12.9037 25.931 C 13.3516 26.0251 14.0076 26.5087 13.8756 26.9029 C 13.7136 27.3809 12.7515 27.3091 12.2557 27.6157 C 11.6189 28.0496 10.9818 28.506 10.5062 29.106 C 10.0764 29.6506 9.8209 30.4152 9.599 31.1148 C 9.3595 31.8706 9.7198 32.9742 9.0806 33.5123 C 8.6304 33.9124 7.3762 33.7315 7.2663 33.1235 C 7.0136 31.7218 7.5696 30.2649 8.2383 29.0413 C 8.8575 27.9013 9.9316 26.9968 11.0246 26.255 Z"/>
      <path id="ID0.30041926680132747" fill="#cd9934" stroke="none" stroke-linecap="round" stroke-width="0.259189" d="M 8.3324 32.5683 C 8.6719 32.5683 8.9799 32.6409 9.2028 32.7583 C 9.4257 32.8755 9.5636 33.0375 9.5636 33.2163 C 9.5636 33.3952 9.4257 33.5571 9.2028 33.6743 C 8.9799 33.7917 8.6719 33.8643 8.3324 33.8643 C 7.9929 33.8643 7.685 33.7917 7.462 33.6743 C 7.2391 33.5571 7.1013 33.3952 7.1013 33.2163 C 7.1013 33.0375 7.2391 32.8755 7.462 32.7583 C 7.685 32.6409 7.9929 32.5683 8.3324 32.5683 Z"/>
    </g>
    <g id="ID0.9301250060088933">
      <path id="ID0.676788670476526" fill="#cd9934" stroke="none" stroke-width="0.259189" d="M 13.1672 23.2896 C 13.6768 23.2896 14.1384 23.5218 14.4728 23.8974 C 14.8071 24.2727 15.0139 24.791 15.0139 25.3631 C 15.0139 25.9351 14.8071 26.4535 14.4728 26.8288 C 14.1384 27.2044 13.6768 27.4366 13.1672 27.4366 C 12.6577 27.4366 12.196 27.2044 11.8617 26.8288 C 11.5273 26.4535 11.3205 25.9351 11.3205 25.3631 C 11.3205 24.791 11.5273 24.2727 11.8617 23.8974 C 12.196 23.5218 12.6577 23.2896 13.1672 23.2896 Z"/>
      <path id="ID0.676788670476526" fill="#cd9934" stroke="none" stroke-width="0.259189" d="M 16.4172 23.2396 C 16.9268 23.2396 17.3884 23.4718 17.7228 23.8474 C 18.0571 24.2227 18.2639 24.741 18.2639 25.3131 C 18.2639 25.8851 18.0571 26.4035 17.7228 26.7788 C 17.3884 27.1544 16.9268 27.3866 16.4172 27.3866 C 15.9077 27.3866 15.446 27.1544 15.1117 26.7788 C 14.7773 26.4035 14.5705 25.8851 14.5705 25.3131 C 14.5705 24.741 14.7773 24.2227 15.1117 23.8474 C 15.446 23.4718 15.9077 23.2396 16.4172 23.2396 Z"/>
      <path id="ID0.676788670476526" fill="#cd9934" stroke="none" stroke-width="0.259189" d="M 20.0172 23.2396 C 20.5268 23.2396 20.9884 23.4718 21.3228 23.8474 C 21.6571 24.2227 21.8639 24.741 21.8639 25.3131 C 21.8639 25.8851 21.6571 26.4035 21.3228 26.7788 C 20.9884 27.1544 20.5268 27.3866 20.0172 27.3866 C 19.5077 27.3866 19.046 27.1544 18.7117 26.7788 C 18.3773 26.4035 18.1705 25.8851 18.1705 25.3131 C 18.1705 24.741 18.3773 24.2227 18.7117 23.8474 C 19.046 23.4718 19.5077 23.2396 20.0172 23.2396 Z"/>
      <path id="ID0.676788670476526" fill="#cd9934" stroke="none" stroke-width="0.259189" d="M 23.5172 23.1396 C 24.0268 23.1396 24.4884 23.3718 24.8228 23.7474 C 25.1571 24.1227 25.3639 24.641 25.3639 25.2131 C 25.3639 25.7851 25.1571 26.3035 24.8228 26.6788 C 24.4884 27.0544 24.0268 27.2866 23.5172 27.2866 C 23.0077 27.2866 22.546 27.0544 22.2117 26.6788 C 21.8773 26.3035 21.6705 25.7851 21.6705 25.2131 C 21.6705 24.641 21.8773 24.1227 22.2117 23.7474 C 22.546 23.3718 23.0077 23.1396 23.5172 23.1396 Z"/>
      <path id="ID0.303304610773921" fill="#cd9934" stroke="none" stroke-width="0.259189" d="M 18.0318 22.7008 C 19.623 22.7008 21.0646 22.8786 22.1086 23.166 C 23.1526 23.4535 23.7988 23.8503 23.7988 24.2883 C 23.7988 24.7263 23.1526 25.1232 22.1086 25.4106 C 21.0646 25.698 19.623 25.8758 18.0318 25.8758 C 16.4407 25.8758 14.9991 25.698 13.9551 25.4106 C 12.9111 25.1232 12.2649 24.7263 12.2649 24.2883 C 12.2649 23.8503 12.9111 23.4535 13.9551 23.166 C 14.9991 22.8786 16.4407 22.7008 18.0318 22.7008 Z"/>
    </g>
    <g id="ID0.9992362693883479">
      <g id="ID0.7608959171921015">
        <path id="ID0.1028266386128962" fill="url(#grad_5-.259189,0,0,0.259189,-40.6,-16.15)" stroke="none" stroke-width="0.259189" d="M 7.6092 8.6673 C 8.5567 8.6673 9.4152 9.0305 10.037 9.617 C 10.6585 10.2033 11.0434 11.0133 11.0434 11.9072 C 11.0434 12.8012 10.6585 13.6111 10.037 14.1974 C 9.4152 14.7839 8.5567 15.1471 7.6092 15.1471 C 6.6616 15.1471 5.8031 14.7839 5.1813 14.1974 C 4.5598 13.6111 4.1749 12.8012 4.1749 11.9072 C 4.1749 11.0133 4.5598 10.2033 5.1813 9.617 C 5.8031 9.0305 6.6616 8.6673 7.6092 8.6673 Z"/>
        <path id="ID0.6595424772240222" fill="#fecc99" stroke="none" stroke-width="0.265748" d="M 7.3732 9.9469 C 7.9543 9.9469 8.4807 10.1755 8.862 10.545 C 9.2432 10.9146 9.4791 11.4249 9.4791 11.988 C 9.4791 12.5511 9.2432 13.0613 8.862 13.4309 C 8.4807 13.8005 7.9543 14.0291 7.3732 14.0291 C 6.7921 14.0291 6.2657 13.8005 5.8844 13.4309 C 5.5031 13.0613 5.2673 12.5511 5.2673 11.988 C 5.2673 11.4249 5.5031 10.9146 5.8844 10.545 C 6.2657 10.1755 6.7921 9.9469 7.3732 9.9469 Z"/>
      </g>
      <g id="ID0.45486381743103266">
        <path id="ID0.1028266386128962" fill="url(#grad_6-.259189,0,0,0.259189,-19.45,-16.1)" stroke="none" stroke-width="0.259189" d="M 28.7592 8.7173 C 29.7067 8.7173 30.5652 9.0805 31.187 9.667 C 31.8085 10.2533 32.1934 11.0633 32.1934 11.9572 C 32.1934 12.8512 31.8085 13.6611 31.187 14.2474 C 30.5652 14.8339 29.7067 15.1971 28.7592 15.1971 C 27.8116 15.1971 26.9531 14.8339 26.3313 14.2474 C 25.7098 13.6611 25.3249 12.8512 25.3249 11.9572 C 25.3249 11.0633 25.7098 10.2533 26.3313 9.667 C 26.9531 9.0805 27.8116 8.7173 28.7592 8.7173 Z"/>
        <path id="ID0.6595424772240222" fill="#fecc99" stroke="none" stroke-width="0.265748" d="M 29.1732 9.9969 C 29.7543 9.9969 30.2807 10.2255 30.662 10.595 C 31.0432 10.9646 31.2791 11.4749 31.2791 12.038 C 31.2791 12.6011 31.0432 13.1113 30.662 13.4809 C 30.2807 13.8505 29.7543 14.0791 29.1732 14.0791 C 28.5921 14.0791 28.0657 13.8505 27.6844 13.4809 C 27.3031 13.1113 27.0673 12.6011 27.0673 12.038 C 27.0673 11.4749 27.3031 10.9646 27.6844 10.595 C 28.0657 10.2255 28.5921 9.9969 29.1732 9.9969 Z"/>
      </g>
      <g id="ID0.29344215244054794">
        <g id="ID0.08768309932202101">
          <g id="ID0.4464206430129707">
            <path id="ID0.012127960566431284" fill="#cd9933" stroke="none" stroke-width="0.292044" d="M 18.3002 2.1743 C 21.2008 2.1743 23.8292 3.336 25.7325 5.2127 C 27.6357 7.0897 28.8138 9.6816 28.8138 12.5419 C 28.8138 15.4021 27.6357 17.994 25.7325 19.871 C 23.8292 21.7477 21.2008 22.9094 18.3002 22.9094 C 15.3996 22.9094 12.7713 21.7477 10.868 19.871 C 8.9648 17.994 7.7866 15.4021 7.7866 12.5419 C 7.7866 9.6816 8.9648 7.0897 10.868 5.2127 C 12.7713 3.336 15.3996 2.1743 18.3002 2.1743 Z"/>
            <path id="ID0.8087072358466685" fill="#ffcb99" stroke="none" stroke-linecap="round" stroke-width="0.259189" d="M 19.8258 6.1205 C 21.2762 6.0323 22.8155 6.3737 23.9728 7.1572 C 25.2843 8.0651 26.3135 9.4508 26.8239 10.9154 C 27.2808 12.2176 26.8936 13.659 26.8239 15.0625 C 26.8065 15.4134 26.5833 14.9153 26.6943 15.0625 C 27.1375 15.6511 27.8093 16.1298 28.1846 16.812 C 28.4334 17.3566 28.6107 18.0211 28.5086 18.6263 C 28.3388 19.6309 28.182 20.817 27.407 21.4774 C 25.9087 22.7485 23.9528 23.6642 21.9641 24.0693 C 19.5772 24.5703 17.0568 24.4982 14.5772 24.1341 C 12.7367 23.8635 10.8837 23.2469 9.3286 22.1902 C 8.4673 21.5826 7.9842 20.4705 7.7087 19.4039 C 7.4917 18.5618 7.7167 17.6689 8.0327 16.812 C 8.2724 16.1643 8.8794 15.7304 9.3286 15.1921 C 9.4408 15.0575 9.5528 15.1034 9.5878 14.8033 C 9.7278 13.603 9.3815 12.3361 9.7174 11.1746 C 10.0904 9.8893 10.693 8.4485 11.7909 7.546 C 12.8663 6.6912 14.3499 6.2762 15.8083 6.25 C 16.6593 6.2358 17.3163 7.1155 18.0114 7.546 C 18.1854 7.6536 17.7419 7.6665 17.8818 7.546 C 18.4399 7.0647 19.0233 6.1694 19.8258 6.1205 Z"/>
          </g>
          <path id="ID0.4197602206841111" fill="url(#grad_7-.296662,0,0,0.296662,-48.85,-20.7)" stroke="none" stroke-linecap="round" stroke-width="0.296662" d="M 18.3069 16.6794 C 19.5457 16.6812 20.8626 16.4884 21.9336 17.0502 C 22.8482 17.5323 23.7557 18.46 23.8025 19.4532 C 23.8266 20.4669 22.9873 21.4551 22.108 21.933 C 20.9783 22.5471 19.5469 22.3774 18.2401 22.3605 C 16.9977 22.3774 15.6378 22.5062 14.5057 21.933 C 13.6089 21.4794 12.6649 20.5971 12.6035 19.5867 C 12.6018 18.5979 13.4722 17.5899 14.3538 17.1244 C 15.5262 16.5053 16.9829 16.6779 18.3069 16.6794 Z"/>
          <path id="ID0.7313267411664128" fill="url(#grad_8-.259189,0,0,0.259189,-42.1,-15.6)" stroke="none" stroke-linecap="round" stroke-width="0.259189" d="M 10.7098 18.6777 C 11.1566 18.6777 11.5617 18.8447 11.8549 19.1145 C 12.1483 19.3843 12.3297 19.757 12.3297 20.1681 C 12.3297 20.5792 12.1483 20.9519 11.8549 21.2217 C 11.5617 21.4915 11.1566 21.6584 10.7098 21.6584 C 10.2629 21.6584 9.8578 21.4915 9.5647 21.2217 C 9.2713 20.9519 9.0898 20.5792 9.0898 20.1681 C 9.0898 19.757 9.2713 19.3843 9.5647 19.1145 C 9.8578 18.8447 10.2629 18.6777 10.7098 18.6777 Z"/>
          <path id="ID0.7313267411664128" fill="url(#grad_9-.259189,0,0,0.259189,-27.099999999999998,-15.95)" stroke="none" stroke-width="0.259189" d="M 25.7098 18.3277 C 26.1566 18.3277 26.5617 18.4947 26.8549 18.7645 C 27.1483 19.0343 27.3297 19.407 27.3297 19.8181 C 27.3297 20.2292 27.1483 20.6019 26.8549 20.8717 C 26.5617 21.1415 26.1566 21.3084 25.7098 21.3084 C 25.2629 21.3084 24.8578 21.1415 24.5647 20.8717 C 24.2713 20.6019 24.0898 20.2292 24.0898 19.8181 C 24.0898 19.407 24.2713 19.0343 24.5647 18.7645 C 24.8578 18.4947 25.2629 18.3277 25.7098 18.3277 Z"/>
        </g>
        <path id="ID0.3959277127869427" fill="#cd9933" stroke="none" stroke-linecap="round" stroke-width="0.259189" d="M 16.7524 0.1943 C 16.93 0.1915 16.9072 1.0071 17.1412 1.3607 C 17.3721 1.6865 17.8094 1.8158 18.1132 2.0734 C 18.3578 2.2805 18.7339 2.4036 18.8259 2.7214 C 18.9089 2.914 18.6994 3.1242 18.5315 3.2867 C 18.3397 3.4707 18.0986 3.6286 17.8216 3.6286 C 17.5445 3.6286 17.241 3.515 17.1117 3.2867 C 16.7654 2.6338 16.495 1.9931 16.4284 1.2959 C 16.3909 0.8809 16.6073 0.1645 16.7524 0.1943 Z"/>
      </g>
      <g id="ID0.44282918609678745">
        <path id="ID0.9467326030135155" fill="#ffffff" stroke="none" stroke-width="0.259189" d="M 12.8557 11.4211 C 13.392 11.4211 13.8779 11.7842 14.2299 12.3707 C 14.5819 12.957 14.7996 13.767 14.7996 14.6609 C 14.7996 15.5549 14.5819 16.3648 14.2299 16.9511 C 13.8779 17.5377 13.392 17.9008 12.8557 17.9008 C 12.3194 17.9008 11.8335 17.5377 11.4815 16.9511 C 11.1295 16.3648 10.9118 15.5549 10.9118 14.6609 C 10.9118 13.767 11.1295 12.957 11.4815 12.3707 C 11.8335 11.7842 12.3194 11.4211 12.8557 11.4211 Z"/>
        <path id="ID0.8799754590727389" fill="#9a6732" stroke="none" stroke-width="0.266625" d="M 13.8065 12.9953 C 14.1193 12.9953 14.4029 13.1985 14.6082 13.5272 C 14.8134 13.8555 14.9404 14.3091 14.9404 14.8097 C 14.9404 15.3103 14.8134 15.7638 14.6082 16.0922 C 14.4029 16.4208 14.1193 16.624 13.8065 16.624 C 13.4936 16.624 13.2101 16.4208 13.0048 16.0922 C 12.7995 15.7638 12.6725 15.3103 12.6725 14.8097 C 12.6725 14.3091 12.7995 13.8555 13.0048 13.5272 C 13.2101 13.1985 13.4936 12.9953 13.8065 12.9953 Z"/>
      </g>
      <g id="ID0.44282918609678745">
        <path id="ID0.9467326030135155" fill="#ffffff" stroke="none" stroke-width="0.259189" d="M 23.5057 11.5211 C 24.042 11.5211 24.5279 11.8842 24.8799 12.4707 C 25.2319 13.057 25.4496 13.867 25.4496 14.7609 C 25.4496 15.6549 25.2319 16.4648 24.8799 17.0511 C 24.5279 17.6377 24.042 18.0008 23.5057 18.0008 C 22.9694 18.0008 22.4835 17.6377 22.1315 17.0511 C 21.7795 16.4648 21.5618 15.6549 21.5618 14.7609 C 21.5618 13.867 21.7795 13.057 22.1315 12.4707 C 22.4835 11.8842 22.9694 11.5211 23.5057 11.5211 Z"/>
        <path id="ID0.8799754590727389" fill="#9a6732" stroke="none" stroke-width="0.266625" d="M 24.3565 13.0453 C 24.6693 13.0453 24.9529 13.2485 25.1582 13.5772 C 25.3634 13.9055 25.4904 14.3591 25.4904 14.8597 C 25.4904 15.3603 25.3634 15.8138 25.1582 16.1422 C 24.9529 16.4708 24.6693 16.674 24.3565 16.674 C 24.0436 16.674 23.7601 16.4708 23.5548 16.1422 C 23.3495 15.8138 23.2225 15.3603 23.2225 14.8597 C 23.2225 14.3591 23.3495 13.9055 23.5548 13.5772 C 23.7601 13.2485 24.0436 13.0453 24.3565 13.0453 Z"/>
      </g>
      <g id="ID0.7243713932111859">
        <path id="ID0.45482554798945785" fill="#343432" stroke="none" stroke-width="0.259189" d="M 18.3563 16.4007 C 18.8568 16.4007 19.3104 16.5168 19.6388 16.7044 C 19.9674 16.8921 20.1706 17.1513 20.1706 17.4374 C 20.1706 17.7236 19.9674 17.9827 19.6388 18.1704 C 19.3104 18.358 18.8568 18.4742 18.3563 18.4742 C 17.8558 18.4742 17.4022 18.358 17.0738 18.1704 C 16.7452 17.9827 16.542 17.7236 16.542 17.4374 C 16.542 17.1513 16.7452 16.8921 17.0738 16.7044 C 17.4022 16.5168 17.8558 16.4007 18.3563 16.4007 Z"/>
        <path id="ID0.49038872541859746" fill="none" stroke="#343432" stroke-linecap="round" stroke-width="0.777567" d="M 18.2915 17.6282 L 18.2915 20.3497"/>
        <path id="ID0.7079106429591775" fill="none" stroke="#343432" stroke-linecap="round" stroke-width="0.777567" d="M 16.218 20.4145 L 20.5594 20.4145"/>
      </g>
    </g>
  </g>
</svg>