<svg xmlns="http://www.w3.org/2000/svg" viewBox="0.106568 0.038 31.2476 44.5442" width="31.2476" height="44.5442" xmlns:xlink="http://www.w3.org/1999/xlink" version="1.1">
  <!-- Exported by Scratch - http://scratch.mit.edu/ -->
  <g id="ID0.9334461996331811">
    <path id="Tail" fill="#594a42" stroke="#000000" stroke-width="0.310936" d="M 12.0138 36.0099 C 10.681 36.3574 9.0648 36.473 7.1339 36.1409 C 2.7501 35.3874 0.9568 31.5679 0.6208 29.6534 C 0.5316 29.1457 0.871 28.6617 1.3784 28.5734 C 1.8862 28.4848 2.3692 28.8237 2.4582 29.3311 C 2.4894 29.5014 3.2835 33.5863 7.4495 34.3028 C 13.2086 35.2926 15.4839 31.5744 15.5778 31.4161 C 15.8393 30.9746 16.4097 30.8246 16.8523 31.0836 C 17.2956 31.3426 17.4476 31.9082 17.1914 32.3522 C 17.1057 32.5013 15.5697 35.0825 12.0138 36.0099 L 12.0138 36.0099 L 12.0138 36.0099 L 12.0138 36.0099 L 12.0138 36.0099 L 12.0138 36.0099 L 12.0138 36.0099 L 12.0138 36.0099 L 12.0138 36.0099 L 12.0138 36.0099 L 12.0138 36.0099 L 12.0138 36.0099 Z"/>
    <g id="Back_Leg">
      <path id="Leg_1_" fill="#594a42" stroke="#000000" stroke-width="0.310936" d="M 22.9684 38.9678 C 22.808 38.9445 22.6549 38.8655 22.5404 38.7332 C 22.2876 38.4411 22.3195 37.9993 22.6116 37.7463 C 22.6343 37.7264 24.9741 35.6248 24.2268 34.0099 C 23.7117 32.8971 21.2177 32.6252 20.3841 32.6177 C 19.9968 32.6145 19.6874 32.2987 19.6902 31.9128 C 19.6933 31.5268 20.0083 31.2162 20.3942 31.2185 C 20.8129 31.2218 24.5177 31.3079 25.4963 33.4224 C 26.6975 36.018 23.6572 38.6922 23.5272 38.8043 C 23.3674 38.9429 23.1626 38.9961 22.9684 38.9678 L 22.9684 38.9678 L 22.9684 38.9678 L 22.9684 38.9678 L 22.9684 38.9678 L 22.9684 38.9678 L 22.9684 38.9678 L 22.9684 38.9678 L 22.9684 38.9678 L 22.9684 38.9678 L 22.9684 38.9678 L 22.9684 38.9678 Z"/>
      <path id="Foot_1_" fill="#c2b59b" stroke="#000000" stroke-width="0.310936" d="M 22.1685 38.2101 L 24.5747 43.1124 C 24.5747 43.1124 25.4245 44.514 26.5061 43.9473 C 26.9664 43.7063 28.7364 42.7454 27.0418 39.7725 C 25.3477 36.8011 22.5185 38.0187 22.5185 38.0187 L 22.1685 38.2101 L 22.1685 38.2101 L 22.1685 38.2101 L 22.1685 38.2101 L 22.1685 38.2101 L 22.1685 38.2101 L 22.1685 38.2101 L 22.1685 38.2101 L 22.1685 38.2101 L 22.1685 38.2101 L 22.1685 38.2101 Z"/>
    </g>
    <g id="Back_Arm">
      <path id="Arm_1_" fill="#594a42" stroke="#000000" stroke-width="0.310936" d="M 29.4308 22.1891 C 29.3868 22.34 28.3161 25.8818 25.3919 25.9587 C 22.3857 26.0379 20.69 23.5403 20.6193 23.4338 C 20.4055 23.1123 20.4928 22.678 20.8144 22.4641 C 21.1353 22.2507 21.5691 22.3376 21.783 22.6574 C 21.8046 22.6888 23.1419 24.6184 25.355 24.56 C 27.2584 24.5099 28.0804 21.8216 28.0885 21.7945 C 28.1985 21.4248 29.5197 21.8859 29.4308 22.1891 L 29.4308 22.1891 L 29.4308 22.1891 L 29.4308 22.1891 L 29.4308 22.1891 L 29.4308 22.1891 L 29.4308 22.1891 L 29.4308 22.1891 L 29.4308 22.1891 L 29.4308 22.1891 L 29.4308 22.1891 Z"/>
      <path id="Hand_1_" fill="#9b8579" stroke="#000000" stroke-width="0.310936" d="M 27.6015 22.1219 C 27.6015 22.1219 26.7514 20.5615 27.3299 20.2851 C 27.9087 20.0093 28.1494 20.9907 28.1494 20.9907 C 28.1494 20.9907 28.8594 18.7573 30.2507 19.467 C 31.6425 20.1769 30.1909 22.292 30.1909 22.292 C 30.1909 22.292 29.6809 22.7956 28.9532 22.8023 C 28.2257 22.8092 27.6015 22.1219 27.6015 22.1219 L 27.6015 22.1219 L 27.6015 22.1219 L 27.6015 22.1219 L 27.6015 22.1219 L 27.6015 22.1219 L 27.6015 22.1219 L 27.6015 22.1219 L 27.6015 22.1219 L 27.6015 22.1219 L 27.6015 22.1219 Z"/>
    </g>
    <g id="Body_1_">
      <path id="Body" fill="#594a42" stroke="#000000" stroke-width="0.310936" d="M 13.8633 23.9208 C 13.8633 23.9208 12.8384 26.3286 12.9378 28.5367 C 13.0371 30.7448 14.9951 33.0289 18.5009 33.0961 C 22.007 33.1639 23.5308 29.9832 23.0064 27.1423 C 22.7458 25.7279 22.0877 24.451 22.0877 24.451 C 22.0877 24.451 21.4607 22.2788 19.6901 21.7575 C 17.9195 21.2362 15.9728 21.2822 15.0385 21.9769 C 14.5828 22.3159 13.8633 23.9208 13.8633 23.9208 L 13.8633 23.9208 L 13.8633 23.9208 L 13.8633 23.9208 L 13.8633 23.9208 L 13.8633 23.9208 L 13.8633 23.9208 L 13.8633 23.9208 L 13.8633 23.9208 L 13.8633 23.9208 L 13.8633 23.9208 Z"/>
      <path id="Belly" fill="#c2b59b" stroke="#000000" stroke-width="0.310936" d="M 22.8063 30.069 C 23.2274 27.4832 21.81 26.3758 20.6773 26.5224 C 19.4962 26.6753 18.6582 27.7562 18.5598 29.9902 C 18.4611 32.2239 17.3565 32.9675 17.3565 32.9675 L 17.3486 32.9879 C 17.7117 33.0512 18.0962 33.0885 18.5012 33.0963 C 20.7709 33.1399 22.2097 31.8227 22.7999 30.1172 L 22.8063 30.069 L 22.8063 30.069 L 22.8063 30.069 L 22.8063 30.069 L 22.8063 30.069 L 22.8063 30.069 L 22.8063 30.069 L 22.8063 30.069 L 22.8063 30.069 L 22.8063 30.069 L 22.8063 30.069 Z"/>
    </g>
    <g id="Front_Leg">
      <path id="Leg" fill="#594a42" stroke="#000000" stroke-width="0.310936" d="M 14.6835 38.1981 C 12.3434 39.0281 10.459 37.7842 9.7243 36.903 C 9.4768 36.6063 9.5169 36.1652 9.8137 35.9177 C 10.1109 35.6697 10.5517 35.7103 10.799 36.0069 C 10.9685 36.205 12.5432 37.9296 14.9307 36.545 C 17.3187 35.1601 15.8662 32.2922 15.8031 32.1704 C 15.6251 31.8276 15.7589 31.4052 16.1019 31.2275 C 16.4428 31.0494 16.8669 31.1832 17.0449 31.5263 C 17.7915 32.9646 18.4569 36.1178 15.6324 37.7556 C 15.3093 37.943 14.9925 38.0886 14.6835 38.1981 L 14.6835 38.1981 L 14.6835 38.1981 L 14.6835 38.1981 L 14.6835 38.1981 L 14.6835 38.1981 L 14.6835 38.1981 L 14.6835 38.1981 L 14.6835 38.1981 L 14.6835 38.1981 L 14.6835 38.1981 L 14.6835 38.1981 Z"/>
      <path id="Foot" fill="#c2b59b" stroke="#000000" stroke-width="0.310936" d="M 10.1787 35.3488 L 6.1906 39.0791 C 6.1906 39.0791 5.098 40.3006 5.9549 41.1702 C 6.32 41.54 7.7557 42.9529 10.1047 40.4653 C 12.4529 37.9778 10.4635 35.6279 10.4635 35.6279 L 10.1787 35.3488 L 10.1787 35.3488 L 10.1787 35.3488 L 10.1787 35.3488 L 10.1787 35.3488 L 10.1787 35.3488 L 10.1787 35.3488 L 10.1787 35.3488 L 10.1787 35.3488 L 10.1787 35.3488 L 10.1787 35.3488 Z"/>
    </g>
    <g id="Front_Arm">
      <path id="Arm" fill="#594a42" stroke="#000000" stroke-width="0.310936" d="M 7.63 28.6315 C 7.5846 28.4812 6.5449 24.9301 8.9513 23.2673 C 11.4254 21.5577 14.2106 22.722 14.328 22.7724 C 14.6829 22.9246 14.8472 23.3361 14.6947 23.6911 C 14.5427 24.0454 14.1321 24.2097 13.7781 24.0587 C 13.7428 24.0441 11.5681 23.1595 9.7468 24.4182 C 8.1806 25.5006 8.9617 28.2009 8.9698 28.2281 C 9.0797 28.5979 7.7214 28.9338 7.63 28.6315 L 7.63 28.6315 L 7.63 28.6315 L 7.63 28.6315 L 7.63 28.6315 L 7.63 28.6315 L 7.63 28.6315 L 7.63 28.6315 L 7.63 28.6315 L 7.63 28.6315 L 7.63 28.6315 Z"/>
      <path id="Hand" fill="#9b8579" stroke="#000000" stroke-width="0.310936" d="M 10.0344 28.8885 C 10.0344 28.8885 10.936 30.4199 10.3668 30.7153 C 9.7976 31.0102 9.5243 30.0373 9.5243 30.0373 C 9.5243 30.0373 8.8891 32.2931 7.4748 31.6299 C 6.0605 30.9665 7.4409 28.8044 7.4409 28.8044 C 7.4409 28.8044 7.9341 28.2841 8.661 28.2533 C 9.3877 28.2223 10.0344 28.8885 10.0344 28.8885 L 10.0344 28.8885 L 10.0344 28.8885 L 10.0344 28.8885 L 10.0344 28.8885 L 10.0344 28.8885 L 10.0344 28.8885 L 10.0344 28.8885 L 10.0344 28.8885 L 10.0344 28.8885 L 10.0344 28.8885 Z"/>
    </g>
    <g id="R_Ear">
      <path id="Ear_1_" fill="#9b8579" stroke="#000000" stroke-width="0.310936" d="M 22.894 8.5016 C 22.9161 8.26 22.9998 7.7713 23.3204 7.5584 C 23.8639 7.1977 24.5045 7.2311 25.3718 8.6626 C 26.2387 10.0945 26.1969 11.5881 25.4555 12.2622 C 25.3005 12.403 25.1232 12.5007 24.9522 12.568 L 24.9371 12.5759 C 24.3321 12.0761 23.8196 11.8392 23.8196 11.8393 C 23.8196 11.8393 23.5202 10.2131 22.889 8.5294 L 22.894 8.5016 L 22.894 8.5016 L 22.894 8.5016 L 22.894 8.5016 L 22.894 8.5016 L 22.894 8.5016 L 22.894 8.5016 L 22.894 8.5016 L 22.894 8.5016 L 22.894 8.5016 L 22.894 8.5016 Z"/>
      <path id="Inner_Ear_1_" fill="none" stroke="#000000" stroke-linecap="round" stroke-width="0.621872" d="M 24.5119 9.6894 C 24.5119 9.6894 24.3708 10.3821 23.5755 10.7408"/>
    </g>
    <path id="Head" fill="#726658" stroke="#000000" stroke-width="0.310936" d="M 8.0292 14.0701 C 7.9871 13.4849 7.1134 3.4755 14.8218 2.8587 C 14.9976 2.8444 15.1699 2.8341 15.3387 2.8275 L 15.3371 2.811 C 15.2893 2.7258 15.1274 2.4079 15.0685 1.9041 C 14.9992 1.3102 15.0646 0.538 15.0646 0.538 L 16.0105 1.6506 L 16.0259 0.6735 C 16.0259 0.6735 16.3024 1.1686 17.0563 2.1384 C 17.4615 2.6597 17.9254 2.9478 18.1025 3.0714 L 18.1475 3.0897 C 21.4501 3.9227 22.7012 6.4645 23.1443 7.8331 C 23.1443 7.8331 23.169 7.8827 23.2077 7.98 C 23.2464 8.0775 23.6984 9.2786 23.9142 10.2535 C 24.0911 11.0531 24.0771 11.7257 24.0664 11.9418 L 24.0723 11.9733 C 23.9151 11.883 23.8196 11.839 23.8196 11.839 C 23.8196 11.839 22.4829 4.5788 19.501 4.856 C 18.3778 4.9606 18.83 7.359 18.83 7.359 C 18.83 7.359 17.8343 4.2649 14.7198 5.0878 C 10.5072 6.2005 11.7912 13.2216 11.7912 13.2216 L 11.7682 13.2418 L 10.5497 13.3324 C 10.5497 13.3324 9.7588 13.2625 8.9533 13.697 C 8.6554 13.8578 8.4651 14.2463 8.1548 14.5053 L 8.0292 14.0701 L 8.0292 14.0701 L 8.0292 14.0701 L 8.0292 14.0701 L 8.0292 14.0701 L 8.0292 14.0701 L 8.0292 14.0701 L 8.0292 14.0701 L 8.0292 14.0701 L 8.0292 14.0701 L 8.0292 14.0701 Z"/>
    <g id="L_Ear">
      <path id="Ear" fill="#9b8579" stroke="#000000" stroke-linejoin="round" stroke-width="0.310936" d="M 9.8126 13.5134 C 9.8126 13.5134 9.7835 13.9336 9.0579 14.1863 C 8.6046 14.3441 8.2256 14.2371 8.2256 14.2371 C 7.9903 14.1973 7.7481 14.0872 7.5006 13.982 C 6.4035 13.5157 5.9259 12.0797 6.5756 10.4743 C 7.225 8.8693 8.4033 8.8791 8.8992 8.9748 C 9.3952 9.0711 9.8019 10.0928 9.8019 10.0928 L 9.8159 10.1582 C 9.6406 10.987 9.7636 12.0876 9.8159 13.3772 L 9.8126 13.5134 L 9.8126 13.5134 L 9.8126 13.5134 L 9.8126 13.5134 L 9.8126 13.5134 L 9.8126 13.5134 L 9.8126 13.5134 L 9.8126 13.5134 L 9.8126 13.5134 L 9.8126 13.5134 L 9.8126 13.5134 Z"/>
      <path id="Inner_Ear" fill="none" stroke="#000000" stroke-linecap="round" stroke-width="0.621872" d="M 8.0488 11.5885 C 8.0359 11.5663 8.58 12.2459 9.492 12.3709"/>
    </g>
    <path id="Face" fill="#c2b59b" stroke="#000000" stroke-width="0.310936" d="M 10.4988 13.0591 C 10.0713 13.0663 7.4977 12.9808 7.7068 16.8619 C 7.9495 21.3639 13.1639 22.8446 18.1662 22.4971 C 24.333 22.069 27.1494 18.7435 26.8421 15.9188 C 26.5343 13.0941 23.8196 11.8392 23.8196 11.8392 C 23.8196 11.8392 22.4829 4.579 19.501 4.8562 C 18.3778 4.9608 18.83 7.3592 18.83 7.3592 C 18.83 7.3592 17.8343 4.2651 14.7198 5.088 C 10.5072 6.2006 11.7912 13.2217 11.7912 13.2217 C 11.7912 13.2217 11.3415 13.0451 10.4988 13.0591 L 10.4988 13.0591 L 10.4988 13.0591 L 10.4988 13.0591 L 10.4988 13.0591 L 10.4988 13.0591 L 10.4988 13.0591 L 10.4988 13.0591 L 10.4988 13.0591 L 10.4988 13.0591 L 10.4988 13.0591 Z"/>
    <path id="Nose" fill="#726658" stroke="#000000" stroke-width="0.210885" d="M 18.948 15.2856 C 18.9362 15.0659 19.1017 14.8573 19.3787 14.6978 C 19.6557 14.5384 20.0441 14.428 20.4781 14.4046 C 20.9121 14.3812 21.31 14.4492 21.6026 14.578 C 21.8951 14.7068 22.0821 14.8964 22.0939 15.1161 C 22.1057 15.3357 21.9402 15.5443 21.6633 15.7038 C 21.3862 15.8633 20.9979 15.9736 20.5639 15.997 C 20.1299 16.0204 19.7319 15.9524 19.4393 15.8236 C 19.1469 15.6948 18.9599 15.5052 18.948 15.2856 L 18.948 15.2856 L 18.948 15.2856 L 18.948 15.2856 L 18.948 15.2856 L 18.948 15.2856 L 18.948 15.2856 L 18.948 15.2856 L 18.948 15.2856 L 18.948 15.2856 Z"/>
    <path id="White_1_" fill="#f1f2f2" stroke-width="0.155468" d="M 17.827 13.915 C 17.8188 12.9511 17.6511 9.505 15.6695 9.8101 C 13.4711 10.1489 14.5941 13.8525 14.6994 14.1847 L 14.7023 14.2095 C 15.0217 14.1288 15.5003 14.029 16.0964 13.9679 C 16.985 13.8766 17.5974 13.9094 17.8208 13.9281 L 17.827 13.915 L 17.827 13.915 L 17.827 13.915 L 17.827 13.915 L 17.827 13.915 L 17.827 13.915 L 17.827 13.915 L 17.827 13.915 L 17.827 13.915 L 17.827 13.915 L 17.827 13.915 Z"/>
    <path id="Pupil_1_" fill="#594a42" stroke="#000000" stroke-width="0.155468" d="M 14.943 13.9546 C 14.943 13.9546 14.1347 10.9984 15.305 10.9401 C 16.4752 10.8819 16.7091 13.8667 16.7091 13.8667"/>
    <path id="Outline_1_" fill="undefined" stroke-width="0.155468" d="M 16.9221 9.8917 C 16.5617 9.5726 16.1274 9.4497 15.6312 9.5259 C 15.1035 9.6073 14.7027 9.8665 14.4395 10.2966 C 13.7665 11.3969 14.2212 13.3205 14.4116 13.9915 C 14.2662 14.0333 14.1833 14.0627 14.1737 14.0663 L 14.3318 14.5052 C 14.3386 14.5026 15.0299 14.2577 16.1175 14.146 C 16.7849 14.0774 17.2936 14.0809 17.59 14.0941 C 17.59 14.0968 17.5898 14.1004 17.5899 14.1008 L 17.8066 14.1075 C 17.8553 14.1116 17.8816 14.1146 17.8829 14.1149 L 17.8836 14.1099 L 18.056 14.1151 C 18.0599 13.9873 18.1391 10.9686 16.9221 9.8917 L 16.9221 9.8917 L 16.9221 9.8917 L 16.9221 9.8917 L 16.9221 9.8917 L 16.9221 9.8917 L 16.9221 9.8917 L 16.9221 9.8917 L 16.9221 9.8917 L 16.9221 9.8917 L 16.9221 9.8917 Z M 16.0698 13.682 C 15.584 13.732 15.1766 13.8063 14.8646 13.8765 C 14.694 13.2733 14.2616 11.4812 14.8375 10.54 C 15.0284 10.2281 15.3113 10.0471 15.7024 9.987 C 16.0604 9.9312 16.3576 10.0151 16.6131 10.2408 C 17.4066 10.9427 17.5593 12.7596 17.5862 13.6267 C 17.2684 13.6134 16.7495 13.6123 16.0698 13.682 L 16.0698 13.682 L 16.0698 13.682 L 16.0698 13.682 L 16.0698 13.682 L 16.0698 13.682 L 16.0698 13.682 L 16.0698 13.682 L 16.0698 13.682 L 16.0698 13.682 L 16.0698 13.682 Z"/>
    <g id="R_Eye">
      <path id="White" fill="#f1f2f2" stroke-width="0.133401" d="M 21.8411 13.5318 C 21.6769 12.9179 20.9289 9.8989 22.0399 9.6978 C 23.2812 9.4731 23.4229 12.7838 23.4393 13.466 L 23.4367 13.4761 C 23.1923 13.4591 22.7153 13.4432 22.1707 13.5146 C 22.0586 13.5294 21.9523 13.5468 21.8527 13.5655 L 21.8411 13.5318 L 21.8411 13.5318 L 21.8411 13.5318 L 21.8411 13.5318 L 21.8411 13.5318 L 21.8411 13.5318 L 21.8411 13.5318 L 21.8411 13.5318 L 21.8411 13.5318 L 21.8411 13.5318 L 21.8411 13.5318 Z"/>
      <path id="Pupil" fill="#594a42" stroke="#000000" stroke-width="0.133401" d="M 21.7367 13.4617 C 21.7367 13.4617 21.318 10.7232 22.0609 10.7232 C 22.8037 10.7232 22.858 13.4617 22.858 13.4617"/>
      <path id="Outline" fill="undefined" stroke-width="0.133401" d="M 23.6223 13.3639 L 23.6303 13.2793 C 23.6288 13.2792 23.6246 13.2786 23.6194 13.278 C 23.5905 12.4881 23.4465 10.422 22.7324 9.7246 C 22.5212 9.5184 22.2784 9.4388 22.0109 9.487 C 21.7766 9.5294 21.5859 9.6779 21.4592 9.9164 C 21.0095 10.7626 21.4179 12.6407 21.6122 13.4022 C 21.5142 13.4247 21.4158 13.4466 21.321 13.4739 L 21.4115 13.8879 C 21.6601 13.8164 21.9227 13.762 22.1918 13.7266 C 22.9506 13.627 23.5841 13.703 23.5903 13.7037 L 23.6013 13.5869 L 23.6267 13.5867 C 23.6267 13.5685 23.6261 13.4883 23.6223 13.3639 L 23.6223 13.3639 L 23.6223 13.3639 L 23.6223 13.3639 L 23.6223 13.3639 L 23.6223 13.3639 L 23.6223 13.3639 L 23.6223 13.3639 L 23.6223 13.3639 L 23.6223 13.3639 L 23.6223 13.3639 Z M 22.1497 13.3026 C 22.093 13.31 22.0381 13.3218 21.982 13.3309 C 21.7638 12.4835 21.4321 10.7861 21.7765 10.1387 C 21.8475 10.0051 21.9404 9.932 22.0686 9.9087 C 22.2265 9.8802 22.3649 9.9263 22.4914 10.0498 C 23.0331 10.5786 23.2099 12.3117 23.247 13.2526 C 22.9762 13.2426 22.5858 13.2453 22.1497 13.3026 L 22.1497 13.3026 L 22.1497 13.3026 L 22.1497 13.3026 L 22.1497 13.3026 L 22.1497 13.3026 L 22.1497 13.3026 L 22.1497 13.3026 L 22.1497 13.3026 L 22.1497 13.3026 L 22.1497 13.3026 Z"/>
    </g>
    <path id="ID0.9196255002170801" fill="none" stroke="#000000" stroke-linecap="round" stroke-width="0.302855" d="M 20.6879 18.0477 C 20.6879 18.0477 20.8044 17.6421 20.8447 17.4402 C 20.8789 17.2331 20.9114 17.0249 20.9112 16.8229 C 20.9121 16.611 20.8422 16.191 20.8422 16.191"/>
    <path id="ID0.7217612732201815" fill="#000000" stroke="none" stroke-linecap="round" stroke-width="0.302855" d="M 18.342 17.8093 C 18.7754 17.6973 19.2306 17.6785 19.6746 17.6276 C 20.0759 17.5816 20.4811 17.5552 20.886 17.5367 C 21.2628 17.5101 21.6432 17.4853 22.0217 17.4913 C 22.1162 17.4928 22.1868 17.4668 22.1883 17.5519 C 22.175 17.9192 22.1729 18.3145 21.9915 18.627 C 21.8167 18.9281 21.5145 19.2073 21.1737 19.2782 C 20.5917 19.399 19.9532 19.4087 19.4172 19.1722 C 18.9123 18.9499 18.6013 18.4399 18.2663 18.0213 C 18.1794 17.9053 18.2336 17.8375 18.342 17.8093 Z"/>
  </g>
</svg>